<svg width="30" height="30" viewBox="0 0 30 30" fill="none" xmlns="http://www.w3.org/2000/svg">
<path fill-rule="evenodd" clip-rule="evenodd" d="M30 15C30 23.2843 23.2843 30 15 30C6.71573 30 0 23.2843 0 15C0 6.71573 6.71573 0 15 0C23.2843 0 30 6.71573 30 15ZM18.2581 19.9997C17.5054 19.9997 16.8945 19.3888 16.8945 18.6362V10.4548C16.8945 9.70206 17.5054 9.09119 18.2581 9.09119C19.0108 9.09119 19.6217 9.70206 19.6217 10.4548V18.6362C19.6217 19.3888 19.0108 19.9997 18.2581 19.9997ZM10.8333 18.6362C10.8333 19.3888 11.4442 19.9997 12.1969 19.9997C12.9496 19.9997 13.5605 19.3888 13.5605 18.6362V10.4548C13.5605 9.70206 12.9496 9.09119 12.1969 9.09119C11.4442 9.09119 10.8333 9.70206 10.8333 10.4548V18.6362Z" fill="currentColor" stroke="none" fill-opacity="0.95"/>
</svg>
