<svg xmlns="http://www.w3.org/2000/svg" style="visibility:hidden;position:absolute;width:0;height:0;overflow:hidden;pointer-events:none"><defs><linearGradient id="card_mir_colored_paint0_linear_14747_37653" x1="15.76" x2="19" y1="14.4" y2="14.4" gradientUnits="userSpaceOnUse"><stop offset=".3" stop-color="#02adff"/><stop offset="1" stop-color="#2968ea"/></linearGradient><linearGradient id="clickup_clickup_1" x1="3" x2="21" y1="19.77" y2="19.77" gradientUnits="userSpaceOnUse"><stop stop-color="#8930fd"/><stop offset="1" stop-color="#49ccf9"/></linearGradient><linearGradient id="clickup_clickup_2" x1="3.5" x2="20.5" y1="8.69" y2="8.69" gradientUnits="userSpaceOnUse"><stop stop-color="#ff02f0"/><stop offset="1" stop-color="#ffc800"/></linearGradient><linearGradient id="mc_pay_mobile_app_linear0" x1="29.36" x2="3.1" y1="3.09" y2="28.45" gradientTransform="scale(.75)" gradientUnits="userSpaceOnUse"><stop offset="0" style="stop-color:#7048f6;stop-opacity:1"/><stop offset=".28" style="stop-color:#6b44ec;stop-opacity:1"/><stop offset=".32" style="stop-color:#6a43ea;stop-opacity:1"/><stop offset=".73" style="stop-color:#5e39d4;stop-opacity:1"/><stop offset="1" style="stop-color:#5a36cc;stop-opacity:1"/></linearGradient><linearGradient id="mc_pay_mobile_app_linear1" x1="7.45" x2="24.55" y1="16" y2="16" gradientTransform="scale(.75)" gradientUnits="userSpaceOnUse"><stop offset="0" style="stop-color:#7048f6;stop-opacity:1"/><stop offset=".22" style="stop-color:#6b44ec;stop-opacity:1"/><stop offset="1" style="stop-color:#5a36cc;stop-opacity:1"/></linearGradient><linearGradient id="mc_vidwide_paint0_linear" x1="12" x2="12" y1="2" y2="22" gradientUnits="userSpaceOnUse"><stop stop-color="#26dfd5"/><stop offset="1" stop-color="#3580f8"/></linearGradient><linearGradient id="messenger_colored_paint0_linear" x1="12" x2="12" y1="1.62" y2="22.94" gradientUnits="userSpaceOnUse"><stop stop-color="#00c6ff"/><stop offset="1" stop-color="#0068ff"/></linearGradient><linearGradient id="payoneer_colored_payoneer_grad_1" x1="2.5" x2="19.5" y1="13.5" y2="15" gradientUnits="userSpaceOnUse"><stop stop-color="#fe4700"/><stop offset=".57" stop-color="#dfcb04"/><stop offset=".72" stop-color="#dfcb04"/><stop offset="1" stop-color="#35d96f"/></linearGradient><linearGradient id="payoneer_colored_payoneer_grad_2" x1="4.81" x2="19.19" y1="13.02" y2="12.8" gradientUnits="userSpaceOnUse"><stop stop-color="#fb5401"/><stop offset=".49" stop-color="#cd56c5"/><stop offset=".74" stop-color="#1596e2"/><stop offset="1" stop-color="#3ed96a"/></linearGradient><linearGradient id="personal_email_colored_paint0_linear_17277_40980" x1="16" x2="16" y1="0" y2="32" gradientUnits="userSpaceOnUse"><stop stop-color="#f26567"/><stop offset="1" stop-color="#f79440"/></linearGradient><linearGradient id="steam_colored_paint0_linear" x1="12" x2="12" y1="0" y2="24" gradientUnits="userSpaceOnUse"><stop stop-color="#111d2e"/><stop offset=".21" stop-color="#051839"/><stop offset=".41" stop-color="#0a1b48"/><stop offset=".58" stop-color="#132e62"/><stop offset=".74" stop-color="#144b7e"/><stop offset=".87" stop-color="#136497"/><stop offset="1" stop-color="#1387b8"/></linearGradient><linearGradient id="telegram_colored_paint0_linear" x1="12" x2="12" y1="0" y2="23.82" gradientUnits="userSpaceOnUse"><stop stop-color="#2aabee"/><stop offset="1" stop-color="#229ed9"/></linearGradient><radialGradient id="instagram_colored_paint0_radial" cx="0" cy="0" r="1" gradientTransform="matrix(0 -23.7858 22.1226 0 6.38 25.85)" gradientUnits="userSpaceOnUse"><stop stop-color="#fd5"/><stop offset=".1" stop-color="#fd5"/><stop offset=".5" stop-color="#ff543e"/><stop offset="1" stop-color="#c837ab"/></radialGradient><radialGradient id="instagram_colored_paint1_radial" cx="0" cy="0" r="1" gradientTransform="rotate(78.68 -3.06 -1.59)scale(10.6323 43.827)" gradientUnits="userSpaceOnUse"><stop stop-color="#3771c8"/><stop offset=".13" stop-color="#3771c8"/><stop offset="1" stop-color="#60f" stop-opacity="0"/></radialGradient></defs><symbol id="mc_ui_sprite_grads-card_mir_colored" viewBox="0 0 24 24"><rect width="24" height="24" fill="#3c88fa" rx="12"/><rect width="18" height="13.5" x="3" y="5.25" fill="#fff" rx="5"/><path fill="#1c8258" d="M10.96 13.73s-.43 0-.54.43l-.4 1.52h-.09l-.4-1.52c-.12-.44-.55-.43-.55-.43H8v3.3h.98v-1.96h.08l.57 1.95h.68l.57-1.95h.08v1.95h.98v-3.3zm3.58 0s-.29.02-.42.34l-.7 1.61h-.08v-1.95h-.98v3.3h.93s.3-.03.43-.35l.68-1.61h.09v1.95h.97v-3.3zm1.36 1.5v1.8h.98v-1.06h1.06c.46 0 .85-.31 1-.75z"/><path fill="url(#card_mir_colored_paint0_linear_14747_37653)" d="M17.94 13.73h-2.18c.11.62.56 1.13 1.13 1.3q.2.05.41.05h1.68l.02-.23a1.1 1.1 0 0 0-1.06-1.12"/></symbol><symbol id="mc_ui_sprite_grads-clickup" viewBox="0 0 24 24"><path fill="url(#clickup_clickup_1)" d="m3 17.37 3.32-2.35c1.77 2.13 3.64 3.1 5.73 3.1 2.07 0 3.9-.96 5.58-3.07l3.37 2.3C18.57 20.38 15.55 22 12.05 22S5.5 20.4 3 17.37"/><path fill="url(#clickup_clickup_2)" d="M12.02 7.12 6.2 11.83 3.5 8.9 12.03 2l8.47 6.9-2.7 2.93z"/></symbol><symbol id="mc_ui_sprite_grads-instagram_colored" viewBox="0 0 24 24"><path fill="url(#instagram_colored_paint0_radial)" d="M0 12a12 12 0 1 1 24 0 12 12 0 0 1-24 0"/><path fill="url(#instagram_colored_paint1_radial)" d="M0 12a12 12 0 1 1 24 0 12 12 0 0 1-24 0"/><path fill="#fff" d="M12 5c-1.9 0-2.14 0-2.89.04-.74.04-1.25.15-1.7.33-.46.18-.85.42-1.23.8-.4.4-.63.78-.81 1.24s-.3.96-.33 1.7C5.01 9.86 5 10.1 5 12s0 2.14.04 2.89c.04.74.15 1.25.33 1.7.18.46.42.85.8 1.23.4.4.78.63 1.24.81s.96.3 1.7.33c.75.03.99.04 2.89.04s2.14 0 2.89-.04a5 5 0 0 0 1.7-.33q.68-.25 1.23-.8c.4-.4.63-.78.81-1.25.17-.44.3-.95.33-1.7.03-.74.04-.98.04-2.88s0-2.14-.04-2.89a5 5 0 0 0-.33-1.7 3.4 3.4 0 0 0-.8-1.24 3.4 3.4 0 0 0-1.24-.8c-.45-.18-.96-.3-1.7-.33-.75-.03-.99-.04-2.9-.04zm-.63 1.26H12c1.87 0 2.1 0 2.83.04.68.03 1.05.15 1.3.24.33.13.56.28.8.53.25.24.4.47.53.8.1.25.2.62.24 1.3.03.74.04.96.04 2.83s0 2.09-.04 2.83a4 4 0 0 1-.24 1.3c-.13.32-.28.55-.53.8-.24.24-.47.4-.8.52-.25.1-.62.21-1.3.24-.74.04-.96.05-2.83.05s-2.09-.01-2.83-.05a4 4 0 0 1-1.3-.24 2 2 0 0 1-.8-.52c-.25-.25-.4-.48-.53-.8-.1-.25-.2-.62-.24-1.3-.03-.74-.04-.96-.04-2.83s0-2.1.04-2.83c.03-.68.15-1.05.24-1.3.13-.33.28-.56.53-.8.24-.25.48-.4.8-.53.25-.1.62-.21 1.3-.24.65-.03.9-.04 2.2-.04m4.37 1.16a.84.84 0 1 0 0 1.68.84.84 0 0 0 0-1.68M12 8.41a3.6 3.6 0 1 0 0 7.19 3.6 3.6 0 0 0 0-7.2m0 1.26a2.33 2.33 0 1 1 0 4.66 2.33 2.33 0 0 1 0-4.66"/></symbol><symbol id="mc_ui_sprite_grads-mc_pay_mobile_app" viewBox="0 0 24 24"><g id="surface1"><path d="M6 0h12a6 6 0 0 1 6 6v12a6 6 0 0 1-6 6H6a6 6 0 0 1-6-6V6a6 6 0 0 1 6-6m0 0" style="stroke:none;fill-rule:nonzero;fill:url(#mc_pay_mobile_app_linear0)"/><path d="M13.1 2.93 5.99 14.27h4.75l-.05 6.8 7.33-11.35-4.9.05Zm0 0" style="stroke:none;fill-rule:nonzero;fill:#fff;fill-opacity:1"/><path d="m10.46 21.82.06-7.34H5.59l7.73-12.3v7.37l5.09-.05Zm-4.1-7.77h4.6l-.05 6.29 6.7-10.4-4.72.05V3.68Zm0 0" style="stroke:none;fill-rule:nonzero;fill:url(#mc_pay_mobile_app_linear1)"/></g></symbol><symbol id="mc_ui_sprite_grads-mc_vidwide" viewBox="0 0 24 24"><path fill="url(#mc_vidwide_paint0_linear)" d="M13.6 2h-3.2C5.8 2 2 5.8 2 10.4v10.3c0 .7.6 1.3 1.3 1.3h10.3c4.6 0 8.4-3.8 8.4-8.4v-3.2C22 5.8 18.2 2 13.6 2"/><path fill="#fff" fill-opacity=".7" d="M9.17 10.08C8.69 9.15 9.3 8 10.27 8h7.46c.97 0 1.58 1.15 1.1 2.08l-3.72 7.21c-.49.95-1.73.95-2.22 0z"/><path fill="#fff" d="M5.17 10.08C4.69 9.15 5.3 8 6.27 8h7.46c.97 0 1.58 1.15 1.1 2.08l-3.72 7.21c-.49.95-1.73.95-2.22 0z"/></symbol><symbol id="mc_ui_sprite_grads-messenger_colored" viewBox="0 0 24 24"><path fill="#00c6ff" d="M0 12a12 12 0 1 1 24 0 12 12 0 0 1-24 0"/><path fill="#fff" fill-rule="evenodd" d="M6.95 20v-2.85A7.2 7.2 0 0 1 4 11.41C4 7.3 7.58 4 12 4s8 3.32 8 7.4c0 4.1-3.58 7.41-8 7.41a9 9 0 0 1-2.37-.32zm-.12-6.09 4.32-4.53 2.07 2.1 3.88-2.1-4.3 4.53-2.04-2.14z" clip-rule="evenodd"/></symbol><symbol id="mc_ui_sprite_grads-payoneer_colored" viewBox="0 0 24 24"><rect width="24" height="24" fill="#eef5ff" rx="12"/><path fill="url(#payoneer_colored_payoneer_grad_1)" d="M21 12a9 9 0 1 0-18 0h2.28a6.72 6.72 0 1 1 13.44 0z"/><path fill="url(#payoneer_colored_payoneer_grad_2)" d="M21 12a9 9 0 0 1-18 0h2.28a6.72 6.72 0 1 0 13.44 0z"/></symbol><symbol id="mc_ui_sprite_grads-personal_email_colored" viewBox="0 0 32 32"><path fill="url(#personal_email_colored_paint0_linear_17277_40980)" d="M0 16a16 16 0 1 1 32 0 16 16 0 0 1-32 0"/><path fill="#fff" d="M6.67 11.84V20c0 1.47 1.19 2.67 2.66 2.67h13.34c1.47 0 2.66-1.2 2.66-2.67v-8.16l-7.6 4.6a3 3 0 0 1-3.52 0z"/><path fill="#fff" d="m7.54 10.03 7.75 4.71.08.06c.36.27.85.27 1.21 0l.08-.06 7.8-4.71c-.47-.43-1.1-.7-1.8-.7H9.34c-.69 0-1.32.27-1.8.7"/></symbol><symbol id="mc_ui_sprite_grads-steam_colored" viewBox="0 0 24 24"><path fill="#132e62" d="M0 12a12 12 0 1 1 24 0 12 12 0 0 1-24 0"/><path fill="#fff" d="M11.9 8.7v.06l-2.93 4.39a3.2 3.2 0 0 0-1.96.56L0 11v4l5.6 2.32a3.29 3.29 0 0 0 6.3.57q.27-.69.26-1.4l4.19-3.1h.1c2.51 0 4.55-2.1 4.55-4.7C21 6.12 18.96 4 16.45 4S11.9 6.1 11.9 8.7m-.7 8.89a2.54 2.54 0 0 1-4.67.13l1.48.63c.96.41 2.07-.06 2.47-1.05.4-1-.06-2.13-1.02-2.55l-1.53-.65c.6-.23 1.26-.24 1.89.03s1.12.78 1.38 1.43a2.7 2.7 0 0 1 0 2.03m5.25-5.76a3.1 3.1 0 0 1-3.03-3.13 3.1 3.1 0 0 1 3.03-3.13c1.67 0 3.03 1.4 3.03 3.13a3.1 3.1 0 0 1-3.03 3.13m-2.27-3.14c0-1.3 1.02-2.35 2.28-2.35a2.3 2.3 0 0 1 2.27 2.35c0 1.3-1.02 2.35-2.27 2.35a2.3 2.3 0 0 1-2.28-2.35"/></symbol><symbol id="mc_ui_sprite_grads-telegram_colored" viewBox="0 0 24 24"><path fill="#229ed9" d="M0 12a12 12 0 1 1 24 0 12 12 0 0 1-24 0"/><path fill="#c8daea" d="m7.41 12.27 1.54 4.05s.2.38.4.38 3.26-3.03 3.26-3.03l3.4-6.27-8.54 3.82z"/><path fill="#a9c6d8" d="m9.45 13.3-.3 3s-.12.9.84 0c.96-.92 1.88-1.63 1.88-1.63"/><path fill="#fff" d="m7.44 12.41-3.16-.98s-.38-.15-.26-.48c.03-.06.08-.12.23-.22.7-.47 12.97-4.67 12.97-4.67s.35-.1.55-.03c.1.03.15.07.2.2q.03.1.03.27l-.02.26c-.07 1.15-2.3 9.72-2.3 9.72s-.14.5-.62.52a1 1 0 0 1-.64-.24c-.94-.77-4.2-2.85-4.91-3.3q-.05-.04-.06-.1c-.01-.04.04-.1.04-.1s5.66-4.8 5.82-5.3q0-.06-.1-.04c-.37.13-6.89 4.05-7.6 4.48-.05.03-.17.01-.17.01"/></symbol></svg>