<svg xmlns="http://www.w3.org/2000/svg" style="visibility:hidden;position:absolute;width:0;height:0;overflow:hidden;pointer-events:none"><symbol id="mc_ui_sprite_flags-flag_ar" viewBox="0 0 24 24"><path fill="#199d00" fill-rule="evenodd" d="M1 4h22v15H1z" clip-rule="evenodd"/><path fill="#fff" fill-rule="evenodd" d="M6.54 8.25c-.02.35-.05.97.24 1.03.35.04.16-.6.29-.72q.04-.1.07.01v.55c0 .17.11.23.2.26.09 0 .15 0 .19.09l.04.95s.21.06.22-.53c.01-.36-.06-.65-.02-.71 0-.07.09-.07.15-.04.09.06.13.15.27.12q.34-.1.35-.35t-.1-.48c.01-.03-.04-.11-.03-.14q.08.09.11 0-.05-.2-.18-.3c-.08-.06-.2-.05-.23.1q-.03.26.17.52.05.1.05.26-.1.05-.18-.03s-.17-.13-.17-.17c.04-.3 0-.33-.02-.42-.02-.11-.07-.15-.12-.22q-.07-.07-.13 0c-.07.13-.04.42.02.55.04.12.1.2.07.2q-.04.1-.1-.03a2 2 0 0 1-.07-.51c-.01-.14-.03-.42-.12-.5-.05-.07-.13-.03-.16.03l.01.4q.08.3.1.62c.02.3-.16.13-.15-.02q.06-.29 0-.57-.05-.1-.14-.08c-.05 0-.2.16-.23.42 0 0-.04.14-.05.26-.02.13-.1.23-.17-.02-.05-.19-.09-.63-.17-.53" clip-rule="evenodd"/><path fill="#fff" fill-rule="evenodd" d="m7.5 9.69-.91.45c0-.21.43-.6.72-.6.19 0 .14.07.19.15" clip-rule="evenodd"/><path fill="#fff" fill-rule="evenodd" d="M7.34 9.98c-.48 1.28 1.13 1.46 1.31.06.02-.06.09-.12.1-.03-.04 1.27-1.25 1.36-1.46.96a1 1 0 0 1-.07-.43c-.03-.25-.16-.15-.18.1-.02.13-.01.17-.01.3.06 1 1.62.57 1.88-.25.13-.46-.02-.8.05-.8.15.17.37.03.42-.03q.04-.06.1-.01c.13.09.34.04.38-.11q.05-.23.05-.48-.16.04-.18.1l-.02.13c0 .05-.09.05-.1 0-.03-.18-.19-.2-.28.06-.06.06-.17.07-.19-.01q.03-.25-.2-.12l-.13-1.06c.05 0 .11.04.16-.03-.05-.19-.18-.57-.25-.6q-.04-.04-.1 0c-.08.02-.15.08-.13.21l.23 1.52c.02.07-.03.15-.1.14-.12-.08-.15-.24-.35-.23-.14 0-.3.16-.32.31a1 1 0 0 0 0 .36c.1.12.22.11.33.09.08-.04.15-.13.18-.11s0 .32-.4.54c-.25.12-.45.14-.56-.06-.07-.14 0-.63-.16-.52" clip-rule="evenodd"/><path fill="#fff" fill-rule="evenodd" d="M9.4 8.69c.09-.04.55-.58.55-.58l-.07-.06q-.04-.03 0-.06c.11-.07.07-.22.02-.29a.3.3 0 0 0-.25 0q-.12.15-.04.29c.06.03.12.1.08.13-.19.2-.7.56-.64.57.01.02.33.02.34 0m-2.79 1.9c-.17.28-.18.7-.09.83q.1.09.2.06c.1-.04.16-.27.13-.35q-.06-.1-.1-.02c-.08.16-.11.05-.12-.04q0-.23.02-.44c.02-.13 0-.1-.04-.04m7.37-.45c-.17-.37-.4-.73-.47-.87a16 16 0 0 0-.71-1.05c-.18-.22.3.09-.06-.34l-.25-.22c-.06-.04-.2-.12-.22 0q-.01.15.01.26c.01.06.1.16.14.22q.89 1.2 1.54 2.54c.08-.04.06-.47.02-.54" clip-rule="evenodd"/><path fill="#fff" fill-rule="evenodd" d="M13.25 11.37c-.04.04.08.2.23.2.24-.03.46-.17.66-.55a1 1 0 0 0 .15-.41 10 10 0 0 0-.16-2.12v-.15c.02-.02.08 0 .1-.05.05-.04-.11-.41-.2-.55-.02-.06-.04-.1-.09 0a1 1 0 0 0-.09.4c.12.84.16 1.57.23 2.4q.02.15-.05.25a2 2 0 0 1-.78.58m3.34 0c-.18.1-.18.22-.04.22.25-.03.54-.05.74-.36q.1-.21.12-.47.06-1.05-.13-2.09l-.03-.21c.02-.04.1 0 .13-.04.04-.05-.2-.38-.3-.52-.03-.06-.04-.1-.1 0a.7.7 0 0 0-.04.4c.13.91.23 1.6.25 2.4l-.05.21c-.08.1-.17.23-.25.3-.08.05-.25.1-.3.16" clip-rule="evenodd"/><path fill="#fff" fill-rule="evenodd" d="M16.72 10.55V10q0-.2-.1-.4c-.04-.12-.01-.22-.04-.34s-.01-.33-.05-.48l-.03-.27c.01-.04.07 0 .1-.04.04-.05-.15-.53-.24-.67q-.06-.09-.16.06c-.07.07-.05.22-.02.36.17.95.3 1.8.28 2.7-.01.08.26-.22.26-.37M15.4 9.38c-.11 0-.34-.22-.41-.35a.2.2 0 0 1 0-.19q.08-.06.16-.03s.05.07.04.08q.09.03.1-.01l-.02-.12c.02-.13.17-.15.23-.07.04.05.05.16.06.23 0 .04-.06 0-.1 0q-.04.04-.04.1zm-2.06 1.4a14.28 14.28 0 0 0-.12-2.28c-.03-.23.1.04.08-.1-.04-.25-.17-.42-.33-.64-.05-.07-.05-.08-.13.02-.08.2 0 .34.02.5a10 10 0 0 1 .22 2.85c.08 0 .21-.13.26-.34" clip-rule="evenodd"/><path fill="#fff" fill-rule="evenodd" d="M17.1 10.33c-.2-.34-.5-.7-.57-.84a19 19 0 0 0-.84-1.11c-.24-.26.11-.04-.05-.25-.13-.15-.17-.2-.29-.29-.05-.04-.09-.11-.11.02v.32c0 .05.05.15.1.2.58.76 1.23 1.52 1.76 2.48.07-.04.04-.47 0-.53" clip-rule="evenodd"/><path fill="#1ba400" fill-rule="evenodd" d="M8.18 9.7q-.04.04-.04.1.02.03.08.03h.08q.03-.04.02-.1c-.03-.09-.12-.06-.14-.03" clip-rule="evenodd"/><path fill="#fff" fill-rule="evenodd" d="M14.81 14.62c.27.01.44.01.67.04l.28-.03c.3-.03.31.44.31.44 0 .28-.1.3-.24.33q-.1-.01-.16-.1a.4.4 0 0 1-.2 0l-.33-.01h-.3c-.02.04-.05.1-.12.08-.06-.01-.13-.18-.1-.31.04-.1.02-.06.02-.1-1.08-.03-2.16-.08-3.22-.07q-1.22.01-2.45.08c-.44-.01-.77-.08-1-.42.03 0 1.11.06 1.43.04.59 0 1.13-.06 1.73-.08 1.18.03 2.35.03 3.53.11-.12-.08-.12-.26.06-.31.01-.01.02.09.04.09.14-.01.08.18.05.22m-4.74-6.66c-.18.53.1 1.1.3 1.04.14.06.23-.21.28-.51q.07-.13.1-.05c-.01.4.02.49.12.6.23.18.41.03.43.02l.17-.18q.07-.07.15-.01c.05.05.04.13.16.2.1.03.3 0 .35-.08l.1-.2c.05-.06.13-.03.13 0-.01.03-.06.06-.02.12q.06.04.1 0c.11-.05.2-.3.2-.3 0-.1-.05-.09-.09-.07l-.09.07c-.05 0-.16.04-.21-.04-.06-.1-.06-.25-.1-.35 0 0-.07-.16 0-.17.03 0 .1.03.11-.03.04-.06-.07-.24-.15-.33q-.1-.11-.24 0c-.07.06-.06.12-.07.18a.3.3 0 0 0 .06.26c.06.12.17.28.13.51 0 0-.06.1-.18.1-.04-.02-.12-.04-.16-.35-.03-.24 0-.57-.1-.73-.03-.1-.06-.19-.14-.02-.03.06-.13.16-.05.35q.1.27.05.56l-.1.15c-.08.08-.16.06-.22.03-.06-.04-.1-.06-.14-.2.01-.2.02-.53-.02-.6-.05-.12-.14-.07-.18-.04q-.26.3-.33.69c-.05.17-.1.12-.14.05-.09-.09-.1-.78-.21-.67" clip-rule="evenodd"/><path fill="#fff" fill-rule="evenodd" d="M10.6 9.1c.1-.06.05-.1.17.02q.24.44.27.92.01.13.07.1c.01-.17.43-.42.82-.45.06-.02.03-.13.04-.19-.03-.22.12-.42.32-.43.27.04.36.19.37.41-.03.44-.48.52-.73.55q-.07.02 0 .06h1.05l.05.03c0 .03-.01 0-.05.08q-.1.15-.11.33-.47.14-.96.2-.18.08-.15.22c.04.1.3.2.3.2.04.03.1.1-.02.25-.51-.02-.91-.25-1.05-.56q-.06-.03-.11.04c-.2.27-.4.5-.74.63a.5.5 0 0 1-.5-.17c-.07-.08-.07-.16-.1-.18-.1.05-1.05.46-.93.27.23-.25.63-.44.98-.69.03-.08.07-.36.21-.45l-.02.23v.07c.03-.02.46-.36.5-.47.04-.06 0-.2 0-.21-.08-.21-.19-.23-.23-.34-.04-.14-.02-.3.06-.34q.1-.1.23.01c.08.08.16.24.18.35-.02.05-.12-.03-.14 0q.08.1.1.22c.06.24.04.34-.02.5-.18.4-.43.52-.64.67 0 0 0 .1.07.16q.06.05.27 0 .43-.25.64-.68.03-.33-.07-.65l-.18-.48c0-.13 0-.17.06-.23M7.87 7.97c.12.06.35.03.34-.17v-.09c-.03-.06-.1-.04-.11.02v.06q-.05.02-.06-.05 0-.03-.02-.05H8l-.03.01v.05q0 .03-.03.03H7.9l-.01-.04-.01-.04-.03-.02c-.07 0-.07.08-.07.1 0 .01 0 .15.08.19" clip-rule="evenodd"/><path fill="#fff" fill-rule="evenodd" d="M11.4 9.5c.12.06.41.03.34-.17v-.09c-.03-.06-.1-.04-.11.02l-.01.06q-.03.01-.05-.05l-.02-.05h-.03l-.02.02-.01.04q0 .03-.03.03h-.02q-.01-.02-.02-.03v-.05l-.03-.02c-.07 0-.07.08-.07.1 0 .01 0 .15.08.19m2.06-.63c.12.05.35.03.34-.17v-.1c-.03-.05-.1-.04-.11.02l-.01.07q-.03.02-.05-.06 0-.02-.02-.04h-.03l-.02.01v.05l-.03.03-.03-.01-.01-.03-.01-.05-.03-.01c-.07 0-.07.08-.07.1 0 .01 0 .15.09.19m1.07 1.59c-.2.24-.12.64-.07.73q.09.2.26.3c.12.1.22.04.27-.03.13-.13.13-.47.19-.53.04-.12.14-.1.19-.05q.06.1.18.16.17.16.39.03.13-.08.2-.26c.06-.17.03-.93.02-1.38l-.12-.63-.03-.37q-.01-.04.02-.03l.05.04q.06-.01.04-.1l-.28-.55q-.04-.05-.1.01a.2.2 0 0 0-.06.16l.03.4.12.65c.03.47.04.86.08 1.33 0 .2-.07.37-.12.4 0 0-.09.05-.15 0-.04-.03-.2-.3-.2-.3q-.14-.1-.21 0c-.17.17-.25.48-.37.7-.02.05-.11.09-.2 0-.24-.33-.1-.8-.13-.68M13.52 7.7c.1.05.18.27.16.38-.02.13-.08.28-.12.26-.05-.01.03-.13-.02-.25-.02-.09-.17-.23-.15-.27-.03-.1.06-.14.13-.12" clip-rule="evenodd"/><path fill="#fff" fill-rule="evenodd" d="M14.88 10.6c.02-.28-.02-.44-.02-.6s-.18-1.37-.21-1.48c-.04-.23.16-.03.14-.17-.07-.16-.25-.4-.3-.55-.03-.06-.02-.11-.1-.01q-.09.27-.06.56c.18.95.36 1.73.33 2.63.08 0 .18-.2.22-.39m1.85-2.5c.1.04.15.32.14.4-.02.15-.07.3-.1.29-.05-.02 0-.22-.02-.28-.02-.09-.16-.25-.14-.3-.03-.1.06-.13.12-.12M9.4 10.07c.1.04.15.25.15.3-.03.11-.08.23-.11.21-.04-.01 0-.16-.01-.2-.01-.11-.14-.17-.14-.22-.02-.08.06-.1.11-.09" clip-rule="evenodd"/><path fill="#1b9d00" fill-rule="evenodd" d="M11.68 10.4c.12 0 .18.1.07.14s-.22.07-.22.23c.04.24-.06.16-.12.13-.07-.06-.26-.18-.29-.44q0-.1.12-.12.2.04.44.05" clip-rule="evenodd"/><path fill="#fff" fill-rule="evenodd" d="M6.88 7.64c.14.05.15.26.14.32-.02.1-.07.23-.1.21-.04-.01 0-.16-.02-.2-.02-.07-.14-.2-.13-.23-.02-.07.06-.11.11-.1m2.75.99c-.1.06-.15.23-.08.34.06.09.16.05.17.05.1.02.17-.2.17-.2s0-.06-.12.06q-.07 0-.07-.04a.3.3 0 0 1 .01-.17q.02-.09-.08-.04m.8-1.07c-.05.04-.16.15-.16.28 0 .08-.02.08.03.12q.03.07.13.01a.2.2 0 0 0 .07-.1c.02-.08-.09.04-.1-.05s.04-.12.1-.2q.02-.1-.07-.06m.64.12q-.04.16-.04.32c-.02.09.08.12.13.02.07-.2.07-.28.07-.35q-.05-.2-.16.01m4.07 2.12c.01-.02.58-.42.58-.42.05-.02.04.2.01.2q-.26.27-.59.42c-.03.02-.05-.15 0-.2m.51 0c.1.04.14.34.13.42 0 .15-.1.28-.14.26s.01-.2-.01-.26c-.02-.09-.1-.25-.1-.3-.02-.1.06-.15.12-.13m-3.32 1.26q.06-.08.16-.14c.05-.03.1.02.1.02.01.06-.03.1-.02.19q0 .05.08.05c.09-.08.17-.08.26-.08.07 0 .07.12.02.12-.16.03-.23.08-.35.12-.06.04-.1 0-.1 0q-.02 0-.01-.12 0-.08-.07-.08-.06.04-.09-.01 0-.04.02-.07m3.91.16q.04.04 0 .11l-.1.1q-.06.06.02.1c.1.02.34-.14.34-.14.04-.03.03-.09.03-.09-.03-.03-.08 0-.11-.01-.02 0-.07-.01-.05-.06l.05-.09q.02-.05-.06-.08h-.15q-.05 0-.06.07c0 .07.05.07.09.09" clip-rule="evenodd"/><path fill="#259f00" fill-rule="evenodd" d="M12.35 9.56q-.04.04-.12 0-.08-.06-.06-.1.04-.04.12 0t.06.1M9.8 7.99q-.05 0-.09-.06-.02-.07.02-.09.05 0 .09.06.02.07-.03.09" clip-rule="evenodd"/><path fill="#209000" fill-rule="evenodd" d="m14.84 14.99.79.01c.05.04.01.15-.02.14h-.22c0-.1-.22-.08-.22 0q-.16.01-.34-.01c-.03-.05-.03-.13.01-.14" clip-rule="evenodd"/></symbol><symbol id="mc_ui_sprite_flags-flag_en" viewBox="0 0 24 24"><path fill="#bd3d44" fill-rule="evenodd" d="M1 4h22v1.15H1zm0 2.3h22v1.16H1zm0 2.31h22v1.16H1zm0 2.31h22v1.16H1zm0 2.31h22v1.16H1zm0 2.3h22v1.16H1zm0 2.32h22V19H1z" clip-rule="evenodd"/><path fill="#fff" fill-rule="evenodd" d="M1 5.15h22v1.16H1zm0 2.31h22v1.15H1zm0 2.3h22v1.16H1zm0 2.32h22v1.15H1zm0 2.3h22v1.16H1zm0 2.31h22v1.16H1z" clip-rule="evenodd"/><path fill="#192f5d" fill-rule="evenodd" d="M1 4h12.54v8.08H1z" clip-rule="evenodd"/><path fill="#fff" fill-rule="evenodd" d="m2.04 4.35.12.32h.37l-.3.2.11.31-.3-.2-.3.2.12-.32-.3-.2h.37zm2.1 0 .1.32h.38l-.3.2.11.31-.3-.2-.3.2.12-.32-.3-.2h.37zm2.08 0 .12.32h.36l-.3.2.12.31-.3-.2-.3.2.12-.32-.3-.2h.37zm2.1 0 .1.32h.38l-.3.2.12.31-.3-.2-.3.2.11-.32-.3-.2h.37zm2.08 0 .12.32h.37l-.3.2.11.31-.3-.2-.3.2.12-.32-.3-.2h.37zm2.1 0 .1.32h.38l-.3.2.12.31-.3-.2-.3.2.11-.32-.3-.2h.37zm-9.4.8.1.32h.37l-.3.2.11.32-.29-.2-.3.2.11-.32-.29-.2h.37zm2.08 0 .12.32h.36l-.3.2.12.32-.3-.2-.3.2.12-.32-.3-.2h.37zm2.1 0 .1.32h.37l-.3.2.12.32-.3-.2-.3.2.11-.32-.3-.2h.38zm2.08 0 .12.32h.36l-.3.2.12.32-.3-.2-.3.2.12-.32-.3-.2h.37zm2.1 0 .1.32h.37l-.3.2.12.32-.3-.2-.3.2.11-.32-.3-.2h.38zm-9.42.81.12.33h.37l-.3.2.11.31-.3-.2-.3.2.12-.32-.3-.2h.37zm2.1 0 .1.32h.38l-.3.2.11.32-.3-.2-.3.2.12-.32-.3-.2h.37zm2.08 0 .12.32h.36l-.3.2.12.32-.3-.2-.3.2.12-.32-.3-.2h.37zm2.1 0 .1.32h.38l-.3.2.12.32-.3-.2-.3.2.11-.32-.3-.2h.37zm2.08 0 .12.32h.37l-.3.2.11.32-.3-.2-.3.2.12-.32-.3-.2h.37zm2.1 0 .1.32h.38l-.3.2.12.32-.3-.2-.3.2.11-.32-.3-.2h.37zm-9.4.8.1.33h.37l-.3.2.12.32-.3-.2-.3.2.11-.33-.3-.2h.38zm2.08 0 .12.33h.36l-.3.2.12.32-.3-.2-.3.2.12-.33-.3-.2h.37zm2.1 0 .1.33h.37l-.3.2.12.32-.3-.2-.3.2.11-.33-.3-.2h.38zm2.08 0 .12.33h.36l-.3.2.12.32-.3-.2-.3.2.12-.33-.3-.2h.37zm2.1 0 .1.33h.37l-.3.2.12.32-.3-.2-.3.2.11-.33-.3-.2h.38zm-9.42.82.12.32h.37l-.3.2.11.32-.3-.2-.3.2.12-.33-.3-.2h.37zm2.1 0 .1.32h.38l-.3.2.11.31-.3-.2-.3.2.12-.32-.3-.2h.37zm2.08 0 .12.32h.36l-.3.2.12.32-.3-.2-.3.2.12-.33-.3-.2h.37zm2.1 0 .1.32h.38l-.3.2.12.32-.3-.2-.3.2.11-.33-.3-.2h.37zm2.08 0 .12.32h.37l-.3.2.11.32-.3-.2-.3.2.12-.33-.3-.2h.37zm2.1 0 .1.32h.38l-.3.2.12.32-.3-.2-.3.2.11-.33-.3-.2h.37zm-9.4.8.1.33h.37l-.3.2.12.31-.3-.2-.3.2.11-.32-.3-.2h.38zm2.08 0 .12.33h.36l-.3.2.12.31-.3-.2-.3.2L5 8.9l-.3-.2h.37zm2.1 0 .1.33h.37l-.3.2.12.31-.3-.2-.3.2.11-.32-.3-.2h.38zm2.08 0 .12.33h.36l-.3.2.12.31-.3-.2-.3.2.12-.32-.3-.2h.37zm2.1 0 .1.33h.37l-.3.2.12.31-.3-.2-.3.2.11-.32-.3-.2h.38zm-9.42.81.12.32h.37l-.3.2.11.32-.3-.2-.3.2.12-.32-.3-.2h.37zm2.1 0 .1.32h.38l-.3.2.12.32-.3-.2-.3.2.11-.32-.3-.2h.37zm2.08 0 .12.32h.36l-.3.2.12.32-.3-.2-.3.2.12-.32-.3-.2h.37zm2.1 0 .1.32h.38l-.3.2.12.32-.3-.2-.3.2.11-.32-.3-.2h.37zm2.08 0 .12.32h.37l-.3.2.11.32-.3-.2-.3.2.12-.32-.3-.2h.37zm2.1 0 .1.32h.38l-.3.2.12.32-.3-.2-.3.2.11-.32-.3-.2h.37zM3.1 10l.1.32h.37l-.3.2.12.32-.3-.2-.3.2.11-.32-.3-.2h.38zm2.08 0 .12.32h.36l-.3.2.12.32-.3-.2-.3.2.12-.32-.3-.2h.37zm2.1 0 .1.32h.37l-.3.2.12.32-.3-.2-.3.2.11-.32-.3-.2h.38zm2.08 0 .12.32h.36l-.3.2.12.32-.3-.2-.3.2.12-.32-.3-.2h.37zm2.1 0 .1.32h.37l-.3.2.12.32-.3-.2-.3.2.11-.32-.3-.2h.38zm-9.42.8.12.33h.37l-.3.2.11.31-.3-.2-.3.2.12-.32-.3-.2h.37zm2.1 0 .1.33h.38l-.3.2.12.31-.3-.2-.3.2.11-.32-.3-.2h.37zm2.08 0 .12.33h.36l-.29.2.12.31-.3-.2-.3.2.11-.32-.3-.2h.37zm2.1 0 .1.33h.38l-.3.2.12.31-.3-.2-.3.2.11-.32-.3-.2h.37zm2.08 0 .12.33h.37l-.3.2.11.31-.3-.2-.3.2.12-.32-.3-.2h.37zm2.1 0 .1.33h.38l-.3.2.12.31-.3-.2-.3.2.11-.32-.3-.2h.37z" clip-rule="evenodd"/></symbol><symbol id="mc_ui_sprite_flags-flag_es" viewBox="0 0 24 24"><path fill="#c60b1e" d="M1 4h22v15H1z"/><path fill="#ffc400" d="M1 8h22v7H1z"/><path fill="#ad1519" d="M4.98 10.67h-.03l-.03-.04-.02-.01-.02-.03q-.01 0-.01-.06.01-.04.04-.05l.05-.01.03-.01.04-.01.02-.01h.03l.03-.01h.2l.04.01.07.02.07.02.03.03.02.03v.04l-.02.02-.02.03-.02.02-.04.02s-.15-.03-.23-.03-.23.03-.23.03"/><path stroke="#000" stroke-linejoin="round" stroke-width=".07" d="M4.98 10.67h-.03l-.03-.04-.02-.01-.02-.03q-.01 0-.01-.06.01-.04.04-.05l.05-.01.03-.01.04-.01.02-.01h.03l.03-.01h.2l.04.01.07.02.07.02.03.03.02.03v.04l-.02.02-.02.03-.02.02-.04.02s-.15-.03-.23-.03-.23.03-.23.03Z"/><path fill="#c8b100" d="M5.17 10.47q0-.06.04-.07.04 0 .04.07t-.04.08q-.04-.01-.04-.08"/><path stroke="#000" stroke-width=".07" d="M5.17 10.47q0-.06.04-.07.04 0 .04.07t-.04.08q-.04-.01-.04-.08Z"/><path fill="#c8b100" d="M5.19 10.47q0-.06.02-.07.02 0 .02.07t-.02.07-.02-.07"/><path stroke="#000" stroke-width=".07" d="M5.19 10.47q0-.06.02-.07.02 0 .02.07t-.02.07-.02-.07Z"/><path fill="#c8b100" d="M5.18 10.4q0-.03.03-.03t.03.02q0 .03-.03.03t-.03-.03"/><path fill="#c8b100" d="M5.23 10.38v.02h-.05v-.02h.02v-.04h-.02v-.02h.02v-.01h.01v.01h.02v.02h-.02v.04z"/><path stroke="#000" stroke-width=".07" d="M5.23 10.38v.02h-.05v-.02h.02v-.04h-.02v-.02h.02v-.01h.01v.01h.02v.02h-.02v.04z"/><path fill="#c8b100" d="M5.25 10.38v.02h-.08v-.02h.03v-.04h-.02v-.02h.02v-.01h.02v.01h.01v.02h-.01v.04z"/><path stroke="#000" stroke-width=".07" d="M5.25 10.38v.02h-.08v-.02h.03v-.04h-.02v-.02h.02v-.01h.02v.01h.01v.02h-.01v.04z"/><path stroke="#000" stroke-width=".07" d="M5.21 10.37q.03 0 .02.02t-.02.03-.03-.03q0-.02.02-.02"/><path fill="#c8b100" d="M5.2 10.66h-.14v-.07l-.01-.05q-.06-.08-.1-.07l.02-.03q.07-.02.16.12l.02.02h.12l.01-.02q.1-.14.16-.12l.02.03q-.02-.01-.1.07v.12z"/><path stroke="#000" stroke-width=".07" d="M5.2 10.66h-.14v-.07l-.01-.05q-.06-.08-.1-.07l.02-.03q.07-.02.16.12l.02.02h.12l.01-.02q.1-.14.16-.12l.02.03q-.02-.01-.1.07v.12H5.2Z"/><path stroke="#000" stroke-width=".07" d="M5.45 10.46q-.05 0-.14.11m-.35-.1q.07-.02.15.1z"/><path fill="#c8b100" d="m5 10.73-.02-.03q.22-.08.46 0l-.02.02v.03l-.21-.03q-.14 0-.2.03z"/><path stroke="#000" stroke-width=".07" d="m5 10.73-.02-.03q.22-.08.46 0l-.02.02v.03l-.21-.03q-.14 0-.2.03z"/><path fill="#c8b100" d="M5.2 10.8q.13 0 .2-.02l.02-.02-.01-.01-.2-.03q-.13 0-.2.03h-.02q0 .03.04.03z"/><path stroke="#000" stroke-width=".07" d="M5.2 10.8q.13 0 .2-.02l.02-.02-.01-.01-.2-.03q-.13 0-.2.03h-.02q0 .03.04.03z"/><path fill="#c8b100" d="m5.44 10.66-.01-.01h-.05l-.02-.03-.04.02q-.04-.01-.04-.02l-.04.02-.03-.03q0 .02-.04.03-.03-.01-.03-.02 0 .01-.04.02l-.04-.02-.03.04-.04-.02v.02h-.01v.02a1 1 0 0 1 .46 0z"/><path stroke="#000" stroke-width=".07" d="m5.44 10.66-.01-.01h-.05l-.02-.03-.04.02q-.04-.01-.04-.02l-.04.02-.03-.03q0 .02-.04.03-.03-.01-.03-.02 0 .01-.04.02l-.04-.02-.03.04-.04-.02v.02h-.01v.02a1 1 0 0 1 .46 0v-.02Z"/><path fill="#c8b100" d="M5.21 10.58v.02q0 .03.04.03l.03-.02v-.01q0 .04.04.03.03 0 .03-.03l.01-.01.01.01v.02l.03.03q.01 0 .03-.02 0 .02.02.03l.03-.02.02-.02v.01l-.03.04h-.03l-.02-.01H5.4q-.03 0-.05-.02l-.03.01-.04-.02-.03.02-.04-.02a.1.1 0 0 1-.06.02l-.01-.02-.02.02H5.1l-.04-.01-.04.02H5l-.02.02-.03-.01-.03-.03v-.02l.03.02.02.02.02-.03.03.02.03-.03v-.03l.01.01q0 .03.04.03.02 0 .03-.02v-.01q.01.03.04.03t.03-.03z"/><path stroke="#000" stroke-width=".07" d="M5.21 10.58v.02q0 .03.04.03l.03-.02v-.01q0 .04.04.03.03 0 .03-.03l.01-.01.01.01v.02l.03.03q.01 0 .03-.02 0 .02.02.03l.03-.02.02-.02v.01l-.03.04h-.03l-.02-.01H5.4q-.03 0-.05-.02l-.03.01-.04-.02-.03.02-.04-.02a.1.1 0 0 1-.06.02l-.01-.02-.02.02H5.1l-.04-.01-.04.02H5l-.02.02-.03-.01-.03-.03v-.02l.03.02.02.02.02-.03.03.02.03-.03v-.03l.01.01q0 .03.04.03.02 0 .03-.02v-.01q.01.03.04.03t.03-.03v-.01h.01Z"/><path fill="#c8b100" d="M5.2 10.67q-.12 0-.22.03h-.01v-.02l.24-.03q.15 0 .23.03v.01z"/><path stroke="#000" stroke-linejoin="round" stroke-width=".07" d="M5.2 10.67q-.12 0-.22.03h-.01v-.02l.24-.03q.15 0 .23.03v.01z"/><path fill="#fff" d="m5.12 10.7.01-.01a.01.01 0 0 1 .02.01l-.02.01z"/><path stroke="#000" stroke-width=".07" d="m5.12 10.7.01-.01a.01.01 0 0 1 .02.01l-.02.01h-.01z"/><path fill="#ad1519" d="M5.21 10.7h-.04v-.02h.07v.02z"/><path stroke="#000" stroke-width=".07" d="M5.21 10.7h-.04v-.02h.07v.02H5.2"/><path fill="#058e6e" d="M5.06 10.72h-.02l-.01-.01v-.01h.06v.01z"/><path stroke="#000" stroke-width=".07" d="M5.06 10.72h-.02l-.01-.01v-.01h.06v.01h-.03"/><path fill="#ad1519" d="M4.98 10.73v-.01h.03l-.01.01z"/><path stroke="#000" stroke-width=".07" d="M4.98 10.73v-.01h.03l-.01.01z"/><path fill="#fff" d="m5.27 10.7.01-.01h.01v.02z"/><path stroke="#000" stroke-width=".07" d="m5.27 10.7.01-.01h.01v.02h-.02z"/><path fill="#058e6e" d="M5.35 10.72h.03v-.02h-.05v.01z"/><path stroke="#000" stroke-width=".07" d="M5.35 10.72h.03v-.02h-.05v.01h.02"/><path fill="#ad1519" d="m5.44 10.73-.01-.01H5.4v.01z"/><path stroke="#000" stroke-width=".07" d="m5.44 10.73-.01-.01H5.4v.01h.03"/><path fill="#ad1519" d="m5.2 10.78-.18-.01a1 1 0 0 1 .38 0l-.19.01"/><path stroke="#000" stroke-linejoin="round" stroke-width=".07" d="m5.2 10.78-.18-.01a1 1 0 0 1 .38 0l-.19.01Z"/><path fill="#c8b100" d="M5.44 10.63v-.01h-.02v.01z"/><path stroke="#000" stroke-width=".07" d="M5.44 10.63v-.01h-.02v.01z"/><path fill="#c8b100" d="m5.3 10.6-.02-.01v.02z"/><path stroke="#000" stroke-width=".07" d="m5.3 10.6-.02-.01v.02l.01-.01Z"/><path fill="#c8b100" d="M5.13 10.6v-.01.02z"/><path stroke="#000" stroke-width=".07" d="M5.13 10.6v-.01.02z"/><path fill="#c8b100" d="M4.98 10.63v-.01H5z"/><path stroke="#000" stroke-width=".07" d="M4.98 10.63v-.01H5v.01z"/><path fill="#c8b100" d="m5.2 10.52-.02.01.02.04h.01l.03-.04z"/><path stroke="#000" stroke-width=".07" d="m5.2 10.52-.02.01.02.04h.01l.03-.04z"/><path fill="#c8b100" d="m5.15 10.58.01.01h.04v-.02l-.04-.01z"/><path stroke="#000" stroke-width=".07" d="m5.15 10.58.01.01h.04v-.02l-.04-.01z"/><path fill="#c8b100" d="M5.26 10.58v.01H5.2v-.02l.04-.01z"/><path stroke="#000" stroke-width=".07" d="M5.26 10.58v.01H5.2v-.02l.04-.01z"/><path fill="#c8b100" d="m5.04 10.53-.02.02.03.03.02-.04z"/><path stroke="#000" stroke-width=".07" d="m5.04 10.53-.02.02.03.03.02-.04h-.03"/><path fill="#c8b100" d="m5 10.6.01.02.04-.02v-.02H5z"/><path stroke="#000" stroke-width=".07" d="m5 10.6.01.02.04-.02v-.02H5L5 10.6"/><path fill="#c8b100" d="M5.11 10.58v.02h-.05v-.02l.04-.02z"/><path stroke="#000" stroke-width=".07" d="M5.11 10.58v.02h-.05v-.02l.04-.02.01.02"/><path fill="#c8b100" d="M4.96 10.6v.03H4.9l.03-.04z"/><path stroke="#000" stroke-width=".07" d="M4.96 10.6v.03H4.9l.03-.04z"/><path fill="#c8b100" d="m5.04 10.6.01-.03.02.02-.02.01z"/><path stroke="#000" stroke-width=".07" d="m5.04 10.6.01-.03.02.02-.02.01z"/><path fill="#c8b100" d="m5.38 10.53.02.02-.03.03h-.01v-.04z"/><path stroke="#000" stroke-width=".07" d="m5.38 10.53.02.02-.03.03h-.01v-.04h.02"/><path fill="#c8b100" d="m5.42 10.6-.02.02-.03-.02v-.02h.04z"/><path stroke="#000" stroke-width=".07" d="m5.42 10.6-.02.02-.03-.02v-.02h.04z"/><path fill="#c8b100" d="m5.3 10.58.02.02h.04v-.02l-.04-.02z"/><path stroke="#000" stroke-width=".07" d="m5.3 10.58.02.02h.04v-.02l-.04-.02z"/><path fill="#c8b100" d="M5.45 10.6v.03h.05l-.03-.04z"/><path stroke="#000" stroke-width=".07" d="M5.45 10.6v.03h.05l-.03-.04z"/><path fill="#c8b100" d="M5.2 10.58v-.01h.02v.02H5.2z"/><path stroke="#000" stroke-width=".07" d="M5.2 10.58v-.01h.02v.02H5.2z"/><path fill="#c8b100" d="m5.35 10.6.01-.03.01.01v.02z"/><path stroke="#000" stroke-width=".07" d="m5.35 10.6.01-.03.01.01v.02h-.02Z"/><path fill="#c8b100" d="m4.9 10.63-.02-.02-.02-.01h.04z"/><path stroke="#000" stroke-width=".07" d="m4.9 10.63-.02-.02-.02-.01h.04v.03Z"/><path fill="#c8b100" d="M4.9 10.63h.02v.01z"/><path stroke="#000" stroke-width=".07" d="M4.9 10.63h.02v.01h-.01v-.02Z"/><path fill="#c8b100" d="m5.5 10.63.03-.02.02-.01h-.04z"/><path stroke="#000" stroke-width=".07" d="m5.5 10.63.03-.02.02-.01h-.04v.03Z"/><path fill="#c8b100" d="M5.51 10.63h-.02v.01z"/><path stroke="#000" stroke-width=".07" d="M5.51 10.63h-.02v.01h.02v-.02Z"/><path fill="#c8b100" d="M4.88 10.97h.66v-.17h-.66z"/><path stroke="#000" stroke-width=".1" d="M4.88 10.97h.66v-.17h-.66v.17Z"/><path fill="#c8b100" d="M4.94 11.09h.53l-.03-.04q0-.03.03-.04h-.53q.03 0 .03.04z"/><path stroke="#000" stroke-linejoin="round" stroke-width=".1" d="M4.94 11.09h.53l-.03-.04q0-.03.03-.04h-.53q.03 0 .03.04z"/><path fill="#c8b100" d="M4.96 11.09h.5q.03 0 .03.02t-.03.02h-.5q-.03 0-.03-.02t.03-.03"/><path stroke="#000" stroke-width=".1" d="M4.96 11.09h.5q.03 0 .03.02t-.03.02h-.5q-.03 0-.03-.02t.03-.03Z"/><path fill="#c8b100" d="M4.96 10.97h.5q.03 0 .03.02t-.03.02h-.5q-.03 0-.03-.02 0-.01.03-.02"/><path stroke="#000" stroke-width=".1" d="M4.96 10.97h.5q.03 0 .03.02t-.03.02h-.5q-.03 0-.03-.02 0-.01.03-.02Z"/><path fill="#005bbf" d="M5.68 13.92q-.08 0-.12-.03l-.12-.02q-.06 0-.11.02l-.12.03q-.08 0-.12-.03l-.11-.02q-.06 0-.12.02l-.12.03v.07q.08 0 .12-.02l.12-.03q.06 0 .11.03l.12.02q.06 0 .12-.02l.11-.03q.07 0 .12.03l.12.02z"/><path stroke="#000" stroke-width=".1" d="M5.68 13.92q-.08 0-.12-.03l-.12-.02q-.06 0-.11.02l-.12.03q-.08 0-.12-.03l-.11-.02q-.06 0-.12.02l-.12.03v.07q.08 0 .12-.02l.12-.03q.06 0 .11.03l.12.02q.06 0 .12-.02l.11-.03q.07 0 .12.03l.12.02z"/><path fill="#ccc" d="m5.68 14-.12-.03-.12-.03q-.06 0-.11.03l-.12.02-.12-.02-.11-.03q-.06 0-.12.03l-.12.02v.08q.08 0 .12-.03l.12-.02q.06 0 .11.02a.3.3 0 0 0 .24 0 .3.3 0 0 1 .23 0l.12.03z"/><path stroke="#000" stroke-width=".1" d="m5.68 14-.12-.03-.12-.03q-.06 0-.11.03l-.12.02-.12-.02-.11-.03q-.06 0-.12.03l-.12.02v.08q.08 0 .12-.03l.12-.02q.06 0 .11.02a.3.3 0 0 0 .24 0 .3.3 0 0 1 .23 0l.12.03z"/><path fill="#005bbf" d="M5.68 14.06q-.06 0-.12-.02l-.12-.02q-.06 0-.11.02l-.12.03-.12-.03-.11-.03-.12.03-.12.03v.07q.08 0 .12-.03a.3.3 0 0 1 .23 0l.12.03.12-.03.11-.02q.07 0 .12.02t.12.03z"/><path stroke="#000" stroke-width=".1" d="M5.68 14.06q-.06 0-.12-.02l-.12-.02q-.06 0-.11.02l-.12.03-.12-.03-.11-.03-.12.03-.12.03v.07q.08 0 .12-.03a.3.3 0 0 1 .23 0l.12.03.12-.03.11-.02q.07 0 .12.02t.12.03z"/><path fill="#ccc" d="M5.68 14.2q-.06.01-.12-.02l-.12-.02q-.06 0-.11.02l-.12.03q-.06 0-.12-.03l-.11-.02q-.07 0-.12.02l-.12.03v-.07l.12-.03a.3.3 0 0 1 .23 0l.12.03.12-.03.11-.02q.07 0 .12.02t.12.03z"/><path stroke="#000" stroke-width=".1" d="M5.68 14.2q-.06.01-.12-.02l-.12-.02q-.06 0-.11.02l-.12.03q-.06 0-.12-.03l-.11-.02q-.07 0-.12.02l-.12.03v-.07l.12-.03a.3.3 0 0 1 .23 0l.12.03.12-.03.11-.02q.07 0 .12.02t.12.03z"/><path fill="#005bbf" d="M5.68 14.28q-.06 0-.12-.02l-.12-.03q-.06 0-.11.03l-.12.02q-.06 0-.12-.03l-.11-.02q-.07 0-.12.03l-.12.02v-.07q.06 0 .12-.03l.12-.02q.06 0 .11.02a.3.3 0 0 0 .24 0l.11-.02q.07 0 .12.02t.12.03z"/><path stroke="#000" stroke-width=".1" d="M5.68 14.28q-.06 0-.12-.02l-.12-.03q-.06 0-.11.03l-.12.02q-.06 0-.12-.03l-.11-.02q-.07 0-.12.03l-.12.02v-.07q.06 0 .12-.03l.12-.02q.06 0 .11.02a.3.3 0 0 0 .24 0l.11-.02q.07 0 .12.02t.12.03z"/><path fill="#c8b100" d="m4.94 13.63.01.01q-.01.08-.08.08h.68a.1.1 0 0 1-.08-.08v-.02h-.53"/><path stroke="#000" stroke-linejoin="round" stroke-width=".1" d="m4.94 13.63.01.01q-.01.08-.08.08h.68a.1.1 0 0 1-.08-.08v-.02h-.53Z"/><path fill="#c8b100" d="M4.96 13.58h.5q.03 0 .03.02t-.03.03h-.5q-.03 0-.03-.03t.03-.02"/><path stroke="#000" stroke-width=".1" d="M4.96 13.58h.5q.03 0 .03.02t-.03.03h-.5q-.03 0-.03-.03t.03-.02Z"/><path fill="#c8b100" d="M4.87 13.9h.68v-.18h-.68z"/><path stroke="#000" stroke-width=".1" d="M4.87 13.9h.68v-.18h-.68v.17Z"/><path fill="#ad1519" d="M4.81 12.96q-.11.06-.1.1 0 .02.05.05c.05.03.08.1.06.12a.17.17 0 0 0 0-.27"/><path stroke="#000" stroke-width=".1" d="M4.81 12.96q-.11.06-.1.1 0 .02.05.05c.05.03.08.1.06.12a.17.17 0 0 0 0-.27Z"/><path fill="#ccc" d="M4.96 13.55h.5v-2.4h-.5z"/><path stroke="#000" stroke-width=".1" d="M5.31 11.16v2.39m.06-2.39v2.39m-.4 0h.48v-2.4h-.49v2.4Z"/><path fill="#ad1519" d="M5.95 12.05q-.35-.12-.73-.06c-.3.05-.51.17-.5.26l-.1-.25c-.02-.1.22-.23.55-.28q.14-.03.28-.03.32 0 .5.07z"/><path stroke="#000" stroke-linejoin="round" stroke-width=".1" d="M5.95 12.05q-.35-.12-.73-.06c-.3.05-.51.17-.5.26l-.1-.25c-.02-.1.22-.23.55-.28q.14-.03.28-.03.32 0 .5.07v.3"/><path fill="#ad1519" d="M4.96 12.35q-.21 0-.24-.1 0-.07.12-.14l.12.01z"/><path stroke="#000" stroke-width=".1" d="M4.96 12.35q-.21 0-.24-.1 0-.07.12-.14l.12.01z"/><path fill="#ad1519" d="M5.45 12.17q.13.01.18.06.02.06-.18.18z"/><path stroke="#000" stroke-width=".1" d="M5.45 12.17q.13.01.18.06.02.06-.18.18v-.24"/><path fill="#ad1519" d="M4.66 12.81c-.01-.04.12-.11.3-.18l.25-.1c.26-.11.45-.25.42-.3.02.01.04.25.04.25.02.04-.15.17-.4.29l-.3.12c-.14.04-.28.13-.26.17z"/><path stroke="#000" stroke-linejoin="round" stroke-width=".1" d="M4.66 12.81c-.01-.04.12-.11.3-.18l.25-.1c.26-.11.45-.25.42-.3.02.01.04.25.04.25.02.04-.15.17-.4.29l-.3.12c-.14.04-.28.13-.26.17l-.05-.24Z"/><path fill="#c8b100" d="M4.93 11.94q.1-.03.08-.1-.02-.04-.09-.02l-.08.04.07.18.03-.01.02-.01zm-.04-.09h.03q.02-.01.04.02 0 .02-.02.05h-.01zm.23-.07h-.05l.04.2.13-.03v-.02l-.08.01zm.26.16.09-.2h-.03l-.06.14-.07-.13h-.07l.11.2zm.28-.15.01-.02-.05-.02q-.08 0-.09.05c0 .07.1.06.1.1q-.01.04-.05.03-.04 0-.04-.04h-.01l-.01.04.05.02q.1 0 .1-.06c0-.06-.1-.06-.1-.1q0-.03.05-.02.03 0 .03.02z"/><path fill="#ad1519" d="M9.68 10.61q0 .02-.04.03l-.03-.02-.03.02-.05-.02-.03.04-.03-.01-.02.02h-.02l-.01-.02-.03-.02h-.01l-.01-.04v-.02q0-.02.06-.05h.07l.1-.02q.06 0 .08.02l.1-.02q.06 0 .09.02h.06q.06.02.07.05v.02l-.01.03-.02.01-.02.02-.02.01h-.01l-.02-.01h-.03q-.04-.02-.04-.03 0 .02-.04.02-.03-.01-.03-.02l-.04.02z"/><path stroke="#000" stroke-width=".07" d="M9.68 10.61q0 .02-.04.03l-.03-.02-.03.02-.05-.02-.03.04-.03-.01-.02.02h-.02l-.01-.02-.03-.02h-.01l-.01-.04v-.02q0-.02.06-.05h.07l.1-.02q.06 0 .08.02l.1-.02q.06 0 .09.02h.06q.06.02.07.05v.02l-.01.03-.02.01-.02.02-.02.01h-.01l-.02-.01h-.03q-.04-.02-.04-.03 0 .02-.04.02-.03-.01-.03-.02l-.04.02z"/><path fill="#c8b100" d="M9.64 10.49q0-.05.04-.06t.04.06q0 .05-.04.05t-.04-.06"/><path stroke="#000" stroke-width=".07" d="M9.64 10.49q0-.05.04-.06t.04.06q0 .05-.04.05t-.04-.06Z"/><path fill="#c8b100" d="m9.67 10.49.01-.06.02.06q0 .05-.02.05z"/><path stroke="#000" stroke-width=".07" d="m9.67 10.49.01-.06.02.06q0 .05-.02.05l-.01-.06Z"/><path fill="#c8b100" d="m9.47 10.73-.02-.03a1 1 0 0 1 .47 0l-.02.02-.01.03-.2-.03-.22.03z"/><path stroke="#000" stroke-width=".07" d="m9.47 10.73-.02-.03a1 1 0 0 1 .47 0l-.02.02-.01.03-.2-.03-.22.03z"/><path fill="#c8b100" d="M9.68 10.8q.13 0 .19-.02.03 0 .03-.02l-.01-.01-.2-.03q-.14 0-.2.03h-.02q0 .03.03.03z"/><path stroke="#000" stroke-width=".07" d="M9.68 10.8q.13 0 .19-.02.03 0 .03-.02l-.01-.01-.2-.03q-.14 0-.2.03h-.02q0 .03.03.03z"/><path fill="#fff" d="m9.86 10.51.01-.01.02.01q0 .01-.02.02z"/><path stroke="#000" stroke-width=".05" d="m9.86 10.51.01-.01.02.01q0 .01-.02.02a.01.01 0 0 1-.01-.02Zm0-.04v-.01h.02l-.01.02a.01.01 0 0 1-.02-.01Zm-.04-.03.01-.01.01.01v.01h-.02zm-.04-.01v-.02q.02 0 .02.02zm-.05 0 .02-.01h.01l-.01.02h-.01v-.01Z"/><path stroke="#000" stroke-linecap="round" stroke-width=".07" d="M10 10.6v-.03l-.02-.06-.06-.03-.04.01"/><path stroke="#000" stroke-width=".07" d="m9.84 10.54.01-.03q0-.05-.08-.06l-.05.01"/><path stroke="#000" stroke-width=".05" d="m10 10.56.02-.01h.01l-.01.02-.01-.01Zm0-.05.01-.01h.01l.01.01-.01.02zm-.03-.03v-.01H10v.02h-.02zm-.04-.02q0-.02.02-.02v.03h-.02zm-.04 0 .01-.01h.01v.02z"/><path fill="#c8b100" d="m9.92 10.66-.02-.01h-.04q-.03-.02-.03-.03l-.04.02q-.03-.01-.03-.02l-.04.02q-.03-.02-.04-.03 0 .02-.04.03-.03-.01-.03-.02 0 .01-.03.02-.05-.01-.05-.02 0 .01-.03.04l-.03-.02v.02h-.02v.02a1 1 0 0 1 .46 0z"/><path stroke="#000" stroke-width=".07" d="m9.92 10.66-.02-.01h-.04q-.03-.02-.03-.03l-.04.02q-.03-.01-.03-.02l-.04.02q-.03-.02-.04-.03 0 .02-.04.03-.03-.01-.03-.02 0 .01-.03.02-.05-.01-.05-.02 0 .01-.03.04l-.03-.02v.02h-.02v.02a1 1 0 0 1 .46 0v-.02Z"/><path fill="#fff" d="m9.48 10.51.01-.01.02.01v.01h-.03"/><path stroke="#000" stroke-width=".05" d="m9.48 10.51.01-.01.01.01v.01h-.02Zm0-.04.02-.01h.01l-.01.02zm.04-.03.01-.01.02.01-.02.01h-.01v-.01Zm.04-.01q0-.02.02-.02v.02zm.04 0 .02-.01h.01l-.01.02H9.6v-.01Z"/><path stroke="#000" stroke-linecap="round" stroke-width=".07" d="M9.37 10.6v-.06a.1.1 0 0 1 .08-.06l.04.01"/><path stroke="#000" stroke-width=".07" d="M9.52 10.54v-.03q0-.05.07-.06l.05.01"/><path stroke="#000" stroke-width=".05" d="m9.33 10.56.01-.01h.02a.01.01 0 0 1-.02.02v-.01Zm0-.05.02-.01.01.01-.01.02-.01-.02Zm.04-.03.01-.01h.01v.02h-.02zm.04-.02.01-.02.01.02v.01H9.4zm.04 0 .02-.01a.01.01 0 0 1 0 .02z"/><path fill="#c8b100" d="M9.69 10.58v.02q0 .03.03.03l.03-.02.01-.01q0 .04.03.03.04 0 .04-.03v-.01l.01.01v.02l.01.02h.05v-.02.01l.02.03.03-.02q.02-.01.02-.02v.01l-.03.04h-.02l-.03-.01h-.02q-.03 0-.04-.02l-.04.01q-.02 0-.03-.02l-.03.02q-.03 0-.05-.02l-.04.02q0 0-.03-.02l-.04.02-.03-.01-.05.02h-.02l-.02.02-.03-.01-.03-.03v-.02l.03.02.03.02.01-.03.03.02.03-.01v-.05l.02.01q0 .03.03.03t.03-.02v-.01h.01q0 .03.03.03.04 0 .04-.03v-.01"/><path stroke="#000" stroke-width=".07" d="M9.69 10.58v.02q0 .03.03.03l.03-.02.01-.01q0 .04.03.03.04 0 .04-.03v-.01l.01.01v.02l.01.02h.05v-.02.01l.02.03.03-.02q.02-.01.02-.02v.01l-.03.04h-.02l-.03-.01h-.02q-.03 0-.04-.02l-.04.01q-.02 0-.03-.02l-.03.02q-.03 0-.05-.02l-.04.02q0 0-.03-.02l-.04.02-.03-.01-.05.02h-.02l-.02.02-.03-.01-.03-.03v-.02l.03.02.03.02.01-.03.03.02.03-.01v-.05l.02.01q0 .03.03.03t.03-.02v-.01h.01q0 .03.03.03.04 0 .04-.03v-.01Z"/><path fill="#c8b100" d="M9.68 10.67q-.14 0-.23.03v-.02l.23-.03q.15 0 .24.03v.01z"/><path stroke="#000" stroke-width=".07" d="M9.68 10.67q-.14 0-.23.03v-.02l.23-.03q.15 0 .24.03v.01z"/><path fill="#fff" d="m9.6 10.7.01-.01a.01.01 0 0 1 0 .02z"/><path stroke="#000" stroke-width=".07" d="m9.6 10.7.01-.01a.01.01 0 0 1 0 .02z"/><path fill="#ad1519" d="M9.68 10.7h-.03v-.02h.07v.02z"/><path stroke="#000" stroke-width=".07" d="M9.68 10.7h-.03v-.02h.07v.02h-.04"/><path fill="#058e6e" d="M9.54 10.72H9.5v-.02h.05v.01z"/><path stroke="#000" stroke-width=".07" d="M9.54 10.72H9.5v-.02h.05v.01h-.02"/><path fill="#ad1519" d="m9.45 10.73.01-.01h.02v.01z"/><path stroke="#000" stroke-width=".07" d="m9.45 10.73.01-.01h.02v.01z"/><path fill="#fff" d="M9.75 10.7v-.01l.02.01-.01.01z"/><path stroke="#000" stroke-width=".07" d="M9.75 10.7v-.01l.02.01-.01.01z"/><path fill="#058e6e" d="M9.83 10.72h.02l.01-.01v-.01H9.8v.01z"/><path stroke="#000" stroke-width=".07" d="M9.83 10.72h.02l.01-.01v-.01H9.8v.01h.03"/><path fill="#ad1519" d="M9.91 10.73v-.01h-.03l.01.01z"/><path stroke="#000" stroke-width=".07" d="M9.91 10.73v-.01h-.03l.01.01z"/><path fill="#ad1519" d="m9.68 10.78-.18-.01a1 1 0 0 1 .37 0z"/><path stroke="#000" stroke-linejoin="round" stroke-width=".07" d="m9.68 10.78-.18-.01a1 1 0 0 1 .37 0l-.18.01Z"/><path fill="#c8b100" d="M9.91 10.63v-.01H9.9z"/><path stroke="#000" stroke-width=".07" d="M9.91 10.63v-.01H9.9v.01z"/><path fill="#c8b100" d="m9.77 10.6-.01-.01v.02z"/><path stroke="#000" stroke-width=".07" d="m9.77 10.6-.01-.01v.02z"/><path fill="#c8b100" d="M9.6 10.6v-.01h.02l-.01.02z"/><path stroke="#000" stroke-width=".07" d="M9.6 10.6v-.01h.02l-.01.02z"/><path fill="#c8b100" d="M9.45 10.63v-.01h.02v.01z"/><path stroke="#000" stroke-width=".07" d="M9.45 10.63v-.01h.02v.01z"/><path fill="#c8b100" d="m9.68 10.52-.02.01.02.04h.01l.02-.04z"/><path stroke="#000" stroke-width=".07" d="m9.68 10.52-.02.01.02.04h.01l.02-.04z"/><path fill="#c8b100" d="M9.63 10.58v.01h.05v-.02l-.04-.01z"/><path stroke="#000" stroke-width=".07" d="M9.63 10.58v.01h.05v-.02l-.04-.01z"/><path fill="#c8b100" d="m9.74 10.58-.01.01h-.04v-.02l.04-.01z"/><path stroke="#000" stroke-width=".07" d="m9.74 10.58-.01.01h-.04v-.02l.04-.01.01.02"/><path fill="#c8b100" d="m9.52 10.53-.02.02.02.03h.01l.01-.04z"/><path stroke="#000" stroke-width=".07" d="m9.52 10.53-.02.02.02.03h.01l.01-.04h-.02"/><path fill="#c8b100" d="m9.47 10.6.02.02.04-.02v-.02h-.05z"/><path stroke="#000" stroke-width=".07" d="m9.47 10.6.02.02.04-.02v-.02h-.05z"/><path fill="#c8b100" d="M9.58 10.58v.02h-.05v-.02l.04-.02z"/><path stroke="#000" stroke-width=".07" d="M9.58 10.58v.02h-.05v-.02l.04-.02z"/><path fill="#c8b100" d="M9.43 10.6v.03H9.4l.02-.04z"/><path stroke="#000" stroke-width=".07" d="M9.43 10.6v.03H9.4l.02-.04z"/><path fill="#c8b100" d="M9.51 10.6q0-.03.02-.03l.01.02v.01H9.5"/><path stroke="#000" stroke-width=".07" d="M9.51 10.6q0-.03.02-.03l.01.02v.01H9.5Z"/><path fill="#c8b100" d="m9.85 10.53.02.02-.03.03-.01-.04z"/><path stroke="#000" stroke-width=".07" d="m9.85 10.53.02.02-.03.03-.01-.04h.02"/><path fill="#c8b100" d="m9.9 10.6-.02.02-.04-.02v-.02h.05z"/><path stroke="#000" stroke-width=".07" d="m9.9 10.6-.02.02-.04-.02v-.02h.05z"/><path fill="#c8b100" d="m9.78 10.58.01.02h.04v-.02l-.03-.02z"/><path stroke="#000" stroke-width=".07" d="m9.78 10.58.01.02h.04v-.02l-.03-.02z"/><path fill="#c8b100" d="M9.93 10.6v.03h.04l-.02-.04z"/><path stroke="#000" stroke-width=".07" d="M9.93 10.6v.03h.04l-.02-.04z"/><path fill="#c8b100" d="M9.67 10.58q0-.02.02-.02v.03z"/><path stroke="#000" stroke-width=".07" d="M9.67 10.58q0-.02.02-.02v.03h-.02z"/><path fill="#c8b100" d="M9.82 10.6q0-.03.02-.03l.01.02-.01.01z"/><path stroke="#000" stroke-width=".07" d="M9.82 10.6q0-.03.02-.03l.01.02-.01.01h-.01Z"/><path fill="#c8b100" d="M9.66 10.42q0-.03.02-.03t.03.03-.03.02z"/><path fill="#c8b100" d="M9.7 10.4v.03h-.04v-.1h.03v.02h.02v.02h-.02v.04z"/><path stroke="#000" stroke-width=".07" d="M9.7 10.4v.03h-.04v-.1h.03v.02h.02v.02h-.02v.04h.01Z"/><path fill="#c8b100" d="M9.72 10.4v.03h-.08v-.02h.03v-.04h-.02v-.02h.02v-.02h.02v.02h.02v.02h-.02v.04z"/><path stroke="#000" stroke-width=".07" d="m9.7 10.4.01.02q0 .02-.03.02l-.02-.02q0-.01.02-.03"/><path fill="#c8b100" d="m9.38 10.63-.02-.02-.02-.01h.03z"/><path stroke="#000" stroke-width=".07" d="m9.38 10.63-.02-.02-.02-.01h.03v.03Z"/><path fill="#c8b100" d="M9.38 10.63h.01v.01z"/><path stroke="#000" stroke-width=".07" d="M9.38 10.63h.01v.01h-.01v-.02Z"/><path fill="#c8b100" d="m9.98 10.63.02-.02.03-.01h-.04z"/><path stroke="#000" stroke-width=".07" d="m9.98 10.63.02-.02.03-.01h-.04v.03Z"/><path fill="#c8b100" d="M9.99 10.63h-.02v.01z"/><path stroke="#000" stroke-width=".07" d="M9.99 10.63h-.02v.01h.01v-.02Z"/><path fill="#c8b100" d="M9.35 10.97h.67v-.17h-.67z"/><path stroke="#000" stroke-width=".1" d="M9.35 10.97h.67v-.17h-.67v.17Z"/><path fill="#c8b100" d="M9.95 11.09h-.53q.03 0 .03-.04l-.03-.04h.53l-.03.04q0 .03.03.04"/><path stroke="#000" stroke-linejoin="round" stroke-width=".1" d="M9.95 11.09h-.53q.03 0 .03-.04l-.03-.04h.53l-.03.04q0 .03.03.04Z"/><path fill="#c8b100" d="M9.43 11.09h.5q.04 0 .04.02l-.04.02h-.5q-.02 0-.03-.02z"/><path stroke="#000" stroke-width=".1" d="M9.43 11.09h.5q.04 0 .04.02l-.04.02h-.5q-.02 0-.03-.02l.03-.03Z"/><path fill="#c8b100" d="M9.43 10.97h.5l.04.02-.04.02h-.5q-.02 0-.03-.02z"/><path stroke="#000" stroke-width=".1" d="M9.43 10.97h.5l.04.02-.04.02h-.5q-.02 0-.03-.02l.03-.02Z"/><path fill="#005bbf" d="m9.22 13.92.12-.03.11-.02q.07 0 .12.02t.12.03.11-.03l.12-.02q.06 0 .11.02t.12.03v.07l-.12-.02-.11-.03q-.08 0-.12.03l-.11.02-.12-.02-.12-.03q-.06 0-.11.03l-.12.02z"/><path stroke="#000" stroke-width=".1" d="m9.22 13.92.12-.03.11-.02q.07 0 .12.02t.12.03.11-.03l.12-.02q.06 0 .11.02t.12.03v.07l-.12-.02-.11-.03q-.08 0-.12.03l-.11.02-.12-.02-.12-.03q-.06 0-.11.03l-.12.02v-.07Z"/><path fill="#ccc" d="m9.22 14 .12-.03.11-.03q.07 0 .12.03a.3.3 0 0 0 .23 0l.12-.03q.06 0 .11.03l.12.02v.08l-.12-.03-.11-.02q-.08 0-.12.02l-.11.03-.12-.03a.3.3 0 0 0-.23 0l-.12.03z"/><path stroke="#000" stroke-width=".1" d="m9.22 14 .12-.03.11-.03q.07 0 .12.03a.3.3 0 0 0 .23 0l.12-.03q.06 0 .11.03l.12.02v.08l-.12-.03-.11-.02q-.08 0-.12.02l-.11.03-.12-.03a.3.3 0 0 0-.23 0l-.12.03v-.08"/><path fill="#005bbf" d="M9.22 14.06q.06 0 .12-.02l.11-.02q.07 0 .12.02a.3.3 0 0 0 .23 0l.12-.03q.06 0 .11.03l.12.03v.07l-.12-.03-.11-.02q-.08 0-.12.02l-.11.03q-.08 0-.12-.03l-.12-.02q-.06 0-.11.02l-.12.03z"/><path stroke="#000" stroke-width=".1" d="M9.22 14.06q.06 0 .12-.02l.11-.02q.07 0 .12.02a.3.3 0 0 0 .23 0l.12-.03q.06 0 .11.03l.12.03v.07l-.12-.03-.11-.02q-.08 0-.12.02l-.11.03q-.08 0-.12-.03l-.12-.02q-.06 0-.11.02l-.12.03v-.08"/><path fill="#ccc" d="M9.22 14.2q.06.01.12-.02l.11-.02q.07 0 .12.02t.12.03.11-.03l.12-.02q.06 0 .11.02l.12.03v-.07l-.12-.03-.11-.02q-.08 0-.12.02l-.11.03q-.08 0-.12-.03l-.12-.02q-.06 0-.11.02l-.12.03z"/><path stroke="#000" stroke-width=".1" d="M9.22 14.2q.06.01.12-.02l.11-.02q.07 0 .12.02t.12.03.11-.03l.12-.02q.06 0 .11.02l.12.03v-.07l-.12-.03-.11-.02q-.08 0-.12.02l-.11.03q-.08 0-.12-.03l-.12-.02q-.06 0-.11.02l-.12.03v.07"/><path fill="#005bbf" d="M9.22 14.28q.06 0 .12-.02l.11-.03q.07 0 .12.03l.12.02q.06 0 .11-.03l.12-.02q.06 0 .11.03l.12.02v-.07q-.06 0-.12-.03l-.11-.02q-.06 0-.12.02l-.11.03q-.08 0-.12-.03l-.12-.02q-.06 0-.11.02l-.12.03z"/><path stroke="#000" stroke-width=".1" d="M9.22 14.28q.06 0 .12-.02l.11-.03q.07 0 .12.03l.12.02q.06 0 .11-.03l.12-.02q.06 0 .11.03l.12.02v-.07q-.06 0-.12-.03l-.11-.02q-.06 0-.12.02l-.11.03q-.08 0-.12-.03l-.12-.02q-.06 0-.11.02l-.12.03v.07Z"/><path fill="#c8b100" d="M9.95 13.63v.01q0 .08.08.08h-.69q.08-.01.09-.08v-.02z"/><path stroke="#000" stroke-linejoin="round" stroke-width=".1" d="M9.95 13.63v.01q0 .08.08.08h-.69q.08-.01.09-.08v-.02z"/><path fill="#c8b100" d="M9.43 13.58h.5q.04 0 .04.02t-.04.03h-.5q-.02 0-.03-.03z"/><path stroke="#000" stroke-width=".1" d="M9.43 13.58h.5q.04 0 .04.02t-.04.03h-.5q-.02 0-.03-.03z"/><path fill="#c8b100" d="M9.34 13.9h.69v-.18h-.69z"/><path stroke="#000" stroke-width=".1" d="M9.34 13.9h.69v-.18h-.69v.17Z"/><path fill="#ad1519" d="M10.08 12.96q.11.06.1.1 0 .02-.05.05c-.05.03-.08.1-.05.12a.17.17 0 0 1 0-.27"/><path stroke="#000" stroke-width=".1" d="M10.08 12.96q.11.06.1.1 0 .02-.05.05c-.05.03-.08.1-.05.12a.17.17 0 0 1 0-.27Z"/><path fill="#ccc" d="M9.44 13.55h.49v-2.4h-.49z"/><path stroke="#000" stroke-width=".1" d="M9.8 11.16v2.38m.05-2.38v2.38m-.4.01h.48v-2.4h-.49v2.4Z"/><path fill="#ad1519" d="M8.94 12.05q.37-.12.73-.06c.3.05.52.17.5.26l.1-.25c.03-.1-.22-.23-.54-.28l-.29-.03q-.32 0-.5.07z"/><path stroke="#000" stroke-linejoin="round" stroke-width=".1" d="M8.94 12.05q.37-.12.73-.06c.3.05.52.17.5.26l.1-.25c.03-.1-.22-.23-.54-.28l-.29-.03q-.32 0-.5.07z"/><path fill="#ad1519" d="M9.93 12.35q.22 0 .24-.1 0-.07-.12-.14l-.12.01z"/><path stroke="#000" stroke-width=".1" d="M9.93 12.35q.22 0 .24-.1 0-.07-.12-.14l-.12.01z"/><path fill="#ad1519" d="M9.44 12.17a.4.4 0 0 0-.18.06q-.01.06.18.18z"/><path stroke="#000" stroke-width=".1" d="M9.44 12.17a.4.4 0 0 0-.18.06q-.01.06.18.18v-.24"/><path fill="#ad1519" d="M10.23 12.81c.01-.04-.12-.11-.3-.18l-.24-.1c-.26-.11-.45-.25-.43-.3l-.03.25c-.03.04.15.17.39.29l.3.12c.14.04.28.13.27.17z"/><path stroke="#000" stroke-linejoin="round" stroke-width=".1" d="M10.23 12.81c.01-.04-.12-.11-.3-.18l-.24-.1c-.26-.11-.45-.25-.43-.3l-.03.25c-.03.04.15.17.39.29l.3.12c.14.04.28.13.27.17l.04-.24Z"/><path fill="#c8b100" d="m9.25 11.95.06-.2h-.03l-.04.15-.09-.13H9.1l.13.18h.03m.19-.2h-.06v.19h.13v-.02h-.08zm.2.03h.07v-.02l-.18-.01v.02h.06l-.01.18h.05zm.08.19h.05l.02-.08.02.04.02.06h.03q.03 0 .03.02v-.03q-.03-.04-.05-.09.06 0 .07-.03 0-.03-.02-.05l-.05-.02-.08-.01zm.09-.17q.04 0 .05.03v.02q-.01.04-.07.03zm.25.22v.06l.02.02.03.02.01-.22-.02-.01-.19.12h.02v.01l.06-.04zm-.05-.04.06-.05V12z"/><path stroke="#000" stroke-width=".03" d="M6.7 10.01q0-.05.06-.06t.06.06q0 .06-.06.06l-.05-.01z"/><path fill="#ad1519" stroke="#000" stroke-width=".07" d="M7.43 9.48q.3 0 .49.08a1 1 0 0 0 .46.07 1 1 0 0 1 .55.22l-.05.04-.01.12-.13.15-.06.06-.16.12h-.08l-.02.07-.98-.12-1 .12-.02-.07h-.08l-.15-.13-.06-.05L6 10l-.02-.12-.04-.04a1 1 0 0 1 .23-.15q.14-.06.32-.07h.2l.25-.07q.19-.08.49-.08Z"/><path fill="#c8b100" d="M7.44 10.78a4 4 0 0 1-.95-.12v-.03q0-.02.02-.03.46-.12.93-.12a4 4 0 0 1 .95.13v.05l-.01.01q-.37.1-.94.11"/><path stroke="#000" stroke-width=".1" d="M7.44 10.78a4 4 0 0 1-.95-.12v-.03q0-.02.02-.03.46-.12.93-.12a4 4 0 0 1 .95.13v.05l-.01.01q-.37.1-.94.11Z"/><path fill="#ad1519" d="M7.44 10.74q-.5 0-.86-.1.36-.1.86-.1.44 0 .86.1-.36.1-.86.1"/><path stroke="#000" stroke-width=".03" d="M7.41 10.74v-.2m.06.2v-.2"/><path stroke="#000" stroke-width=".05" d="M7.31 10.74v-.2m.05.2v-.2"/><path stroke="#000" stroke-width=".07" d="M7.14 10.73v-.18m.13.2v-.2m-.09.18v-.18m.04.18v-.19m-.12.18v-.16"/><path stroke="#000" stroke-width=".1" d="M6.96 10.7v-.13m.04.14v-.15m.03.15v-.15m.04.16v-.16"/><path stroke="#000" stroke-width=".13" d="M6.9 10.7v-.12m.03.12v-.13"/><path stroke="#000" stroke-width=".15" d="M6.78 10.68v-.09m.03.1v-.1m.04.1v-.1"/><path stroke="#000" stroke-width=".17" d="M6.66 10.66v-.04m.08.06v-.08m-.04.07v-.06"/><path stroke="#000" stroke-width=".23" d="M6.62 10.65v-.02"/><path stroke="#000" stroke-width=".03" d="M7.52 10.74v-.2m.16.19v-.18m-.1.18v-.19"/><path fill="#c8b100" d="M7.44 10.48q-.48 0-.94.12.03 0 0-.1-.07-.09-.08-.07.4-.11 1.02-.12.53 0 1.03.12-.01-.02-.08.08-.03.08 0 .09a4 4 0 0 0-.95-.12"/><path stroke="#000" stroke-width=".1" d="M7.44 10.48q-.48 0-.94.12.03 0 0-.1-.07-.09-.08-.07.4-.11 1.02-.12.53 0 1.03.12-.01-.02-.08.08-.03.08 0 .09a4 4 0 0 0-.95-.12"/><path fill="#c8b100" d="M7.44 10.3a4 4 0 0 0-1.06.13v-.01l.02-.04q.51-.14 1.04-.14c.41 0 .79.06 1.05.13q.03.02.02.05 0 .02-.04.01a4 4 0 0 0-1.03-.12"/><path stroke="#000" stroke-width=".1" d="M7.44 10.3a4 4 0 0 0-1.06.13v-.01l.02-.04q.51-.14 1.04-.14c.41 0 .79.06 1.05.13q.03.02.02.05 0 .02-.04.01a4 4 0 0 0-1.03-.12Z"/><path stroke="#000" stroke-linejoin="round" stroke-width=".1" d="M7.44 10.74q-.5 0-.86-.1.36-.1.86-.1.44 0 .86.1-.36.1-.86.1Z"/><path fill="#fff" stroke="#000" stroke-width=".1" d="M7.16 10.4q0-.03.03-.03t.03.03a.03.03 0 0 1-.05.02z"/><path fill="#ad1519" d="M7.44 10.43h-.1a.03.03 0 0 1-.03-.04l.03-.03h.2q.03 0 .04.03 0 .03-.04.04z"/><path stroke="#000" stroke-width=".1" d="M7.44 10.43h-.1a.03.03 0 0 1-.03-.04l.03-.03h.2q.03 0 .04.03 0 .03-.04.04h-.1"/><path fill="#058e6e" d="M6.95 10.45h-.07q-.03.01-.04-.02l.03-.03h.07l.07-.02q.04 0 .04.03t-.03.03z"/><path stroke="#000" stroke-width=".1" d="M6.95 10.45h-.07q-.03.01-.04-.02l.03-.03h.07l.07-.02q.04 0 .04.03t-.03.03z"/><path fill="#fff" d="M6.66 10.46q0-.03.03-.03t.03.03a.03.03 0 0 1-.06 0"/><path stroke="#000" stroke-width=".1" d="M6.66 10.46q0-.03.03-.03t.03.03a.03.03 0 0 1-.06 0"/><path fill="#ad1519" d="m6.44 10.52.03-.05h.1l-.07.07z"/><path stroke="#000" stroke-width=".1" d="m6.44 10.52.03-.05h.1l-.07.07-.06-.02"/><path fill="#058e6e" d="M7.94 10.45H8q.02.01.03-.02v-.02h-.01l-.01-.01h-.07l-.08-.02h-.01l-.02.02q0 .04.03.04z"/><path stroke="#000" stroke-width=".1" d="M7.94 10.45H8q.02.01.03-.02v-.02h-.01l-.01-.01h-.07l-.08-.02h-.01l-.02.02q0 .04.03.04z"/><path fill="#fff" d="M7.67 10.4a.03.03 0 0 1 .06 0 .03.03 0 0 1-.05.02zm.49.06q0-.03.03-.03t.04.03a.03.03 0 0 1-.07 0"/><path stroke="#000" stroke-width=".1" d="M8.16 10.46q0-.03.03-.03t.04.03a.03.03 0 0 1-.07 0m-.5-.06a.03.03 0 0 1 .07 0 .03.03 0 0 1-.05.02z"/><path fill="#ad1519" stroke="#000" stroke-width=".1" d="m8.45 10.52-.04-.05h-.1l.08.07z"/><path stroke="#000" stroke-width=".1" d="M6.54 10.65q.36-.1.9-.1.55 0 .9.1"/><path fill="#c8b100" d="m6.7 9.74.04.03.06-.1a.2.2 0 0 1-.1-.22c0-.13.15-.24.36-.24q.16 0 .26.08v-.06a1 1 0 0 0-.26-.06c-.23 0-.42.12-.42.28a.3.3 0 0 0 .09.24z"/><path stroke="#000" stroke-width=".1" d="m6.7 9.74.04.03.06-.1a.2.2 0 0 1-.1-.22c0-.13.15-.24.36-.24q.16 0 .26.08v-.06a1 1 0 0 0-.26-.06c-.23 0-.42.12-.42.28a.3.3 0 0 0 .09.24z"/><path fill="#c8b100" d="M6.7 9.74a.3.3 0 0 1-.12-.22q0-.16.16-.25a.3.3 0 0 0-.1.2.3.3 0 0 0 .09.22z"/><path stroke="#000" stroke-width=".1" d="M6.7 9.74a.3.3 0 0 1-.12-.22q0-.16.16-.25a.3.3 0 0 0-.1.2.3.3 0 0 0 .09.22z"/><path fill="#c8b100" d="M6 9.85a.3.3 0 0 1-.07-.19l.03-.12c.07-.13.27-.22.5-.22l.19.02-.03.04-.16-.01c-.22 0-.4.08-.45.2a.2.2 0 0 0 0 .19l.06.08-.08.13-.04-.04z"/><path stroke="#000" stroke-width=".1" d="M6 9.85a.3.3 0 0 1-.07-.19l.03-.12c.07-.13.27-.22.5-.22l.19.02-.03.04-.16-.01c-.22 0-.4.08-.45.2a.2.2 0 0 0 0 .19l.06.08-.08.13-.04-.04z"/><path fill="#c8b100" d="M6.09 9.42a.3.3 0 0 0-.13.12.3.3 0 0 0 .04.3l-.04.09a.3.3 0 0 1-.07-.2q0-.2.2-.31"/><path stroke="#000" stroke-width=".1" d="M6.09 9.42a.3.3 0 0 0-.13.12.3.3 0 0 0 .04.3l-.04.09a.3.3 0 0 1-.07-.2q0-.2.2-.31Z"/><path fill="#c8b100" d="M7.44 9.14q.09 0 .1.08.02.06.02.14v.03q0 .16.04.26l-.16.15-.16-.15a1 1 0 0 0 .04-.26v-.17q.03-.08.12-.08"/><path stroke="#000" stroke-width=".1" d="M7.44 9.14q.09 0 .1.08.02.06.02.14v.03q0 .16.04.26l-.16.15-.16-.15a1 1 0 0 0 .04-.26v-.17q.03-.08.12-.08Z"/><path fill="#c8b100" d="M7.44 9.19q.05 0 .05.04l.02.13v.03q0 .16.03.24l-.1.1-.1-.1.03-.24v-.03l.01-.13a.1.1 0 0 1 .06-.04"/><path stroke="#000" stroke-width=".1" d="M7.44 9.19q.05 0 .05.04l.02.13v.03q0 .16.03.24l-.1.1-.1-.1.03-.24v-.03l.01-.13a.1.1 0 0 1 .06-.04Z"/><path fill="#c8b100" d="m8.18 9.74-.04.03-.07-.1a.2.2 0 0 0 .12-.2v-.02c0-.13-.17-.24-.37-.24q-.14 0-.26.08l-.01-.06a1 1 0 0 1 .27-.06c.23 0 .41.12.42.28a.3.3 0 0 1-.1.24z"/><path stroke="#000" stroke-width=".1" d="m8.18 9.74-.04.03-.07-.1a.2.2 0 0 0 .12-.2v-.02c0-.13-.17-.24-.37-.24q-.14 0-.26.08l-.01-.06a1 1 0 0 1 .27-.06c.23 0 .41.12.42.28a.3.3 0 0 1-.1.24z"/><path fill="#c8b100" d="M8.18 9.74a.3.3 0 0 0 .12-.22q0-.16-.16-.25a.27.27 0 0 1 0 .42z"/><path stroke="#000" stroke-width=".1" d="M8.18 9.74a.3.3 0 0 0 .12-.22q0-.16-.16-.25a.27.27 0 0 1 0 .42z"/><path fill="#c8b100" d="M8.88 9.85a.3.3 0 0 0 .04-.3c-.07-.14-.27-.23-.5-.23l-.2.02.04.04.16-.01c.22 0 .4.08.45.2l.02.1a.2.2 0 0 1-.08.17l.08.13.04-.04z"/><path stroke="#000" stroke-width=".1" d="M8.88 9.85a.3.3 0 0 0 .04-.3c-.07-.14-.27-.23-.5-.23l-.2.02.04.04.16-.01c.22 0 .4.08.45.2l.02.1a.2.2 0 0 1-.08.17l.08.13.04-.04-.06-.08Z"/><path fill="#c8b100" d="M8.8 9.42q.07.04.12.12a.3.3 0 0 1-.05.3l.05.09a.3.3 0 0 0 .08-.2q-.02-.2-.2-.31"/><path stroke="#000" stroke-width=".1" d="M8.8 9.42q.07.04.12.12a.3.3 0 0 1-.05.3l.05.09a.3.3 0 0 0 .08-.2q-.02-.2-.2-.31Z"/><path fill="#fff" d="M7.38 9.67q0-.05.06-.06t.06.06q0 .05-.06.05a.1.1 0 0 1-.06-.05"/><path stroke="#000" stroke-width=".1" d="M7.38 9.67q0-.05.06-.06t.06.06q0 .05-.06.05a.1.1 0 0 1-.06-.05Z"/><path fill="#fff" d="M7.38 9.56q0-.05.06-.05t.06.05q0 .05-.06.06a.1.1 0 0 1-.06-.06m.01-.11q0-.04.05-.04.03 0 .04.04 0 .04-.04.04a.04.04 0 0 1-.05-.04m.02-.1a.03.03 0 0 1 .06 0 .03.03 0 0 1-.06 0m0-.1q0-.01.03-.02.02 0 .03.03l-.03.02z"/><path stroke="#000" stroke-width=".1" d="M7.41 9.26q0-.03.03-.03t.03.03l-.03.02zm-.03.3q0-.05.06-.05t.06.05q0 .05-.06.06a.1.1 0 0 1-.06-.06Zm.01-.11q0-.04.05-.04.03 0 .04.04 0 .04-.04.04a.04.04 0 0 1-.05-.04Zm.02-.1a.03.03 0 0 1 .06 0 .03.03 0 0 1-.06 0Z"/><path fill="#c8b100" d="M7.44 10h.04a.14.14 0 0 0 .14.19.2.2 0 0 0 .14-.1l.02-.05v.05q.04.12.15.12a.14.14 0 0 0 .15-.15l.05-.05.02.06-.01.06a.14.14 0 0 0 .14.13q.08 0 .12-.06l.02-.03v.04q0 .08.07.1 0 .01.12-.05l.1-.1.01.05s-.05.09-.12.13q-.05.04-.12.03t-.1-.08l-.1.03a.2.2 0 0 1-.19-.12.22.22 0 0 1-.32 0 .2.2 0 0 1-.15.05.2.2 0 0 1-.18-.1.2.2 0 0 1-.17.1.2.2 0 0 1-.15-.06.22.22 0 0 1-.33.01.2.2 0 0 1-.18.12l-.11-.03q-.03.06-.1.08l-.12-.03c-.06-.04-.12-.13-.12-.13v-.05l.11.1q.12.06.13.05.06-.02.06-.1v-.04l.03.03a.1.1 0 0 0 .12.07.14.14 0 0 0 .12-.2l.03-.06.05.05v.01q.01.13.14.14.12 0 .15-.12v-.05l.02.05a.2.2 0 0 0 .15.1.14.14 0 0 0 .14-.19z"/><path stroke="#000" stroke-width=".1" d="M7.44 10h.04a.14.14 0 0 0 .14.19.2.2 0 0 0 .14-.1l.02-.05v.05q.04.12.15.12a.14.14 0 0 0 .15-.15l.05-.05.02.06-.01.06a.14.14 0 0 0 .14.13q.08 0 .12-.06l.02-.03v.04q0 .08.07.1 0 .01.12-.05l.1-.1.01.05s-.05.09-.12.13q-.05.04-.12.03t-.1-.08l-.1.03a.2.2 0 0 1-.19-.12.22.22 0 0 1-.32 0 .2.2 0 0 1-.15.05.2.2 0 0 1-.18-.1.2.2 0 0 1-.17.1.2.2 0 0 1-.15-.06.22.22 0 0 1-.33.01.2.2 0 0 1-.18.12l-.11-.03q-.03.06-.1.08l-.12-.03c-.06-.04-.12-.13-.12-.13v-.05l.11.1q.12.06.13.05.06-.02.06-.1v-.04l.03.03a.1.1 0 0 0 .12.07.14.14 0 0 0 .12-.2l.03-.06.05.05v.01q.01.13.14.14.12 0 .15-.12v-.05l.02.05a.2.2 0 0 0 .15.1.14.14 0 0 0 .14-.19z"/><path fill="#fff" stroke="#000" stroke-width=".1" d="M8.46 10.18q0-.04-.02-.06-.03 0-.05.04 0 .04.02.05.03 0 .05-.03Zm-.64-.13q0-.04-.04-.05-.02 0-.03.05 0 .03.03.05.02 0 .04-.05Zm-.75 0q0-.04.03-.05.03 0 .04.05 0 .03-.03.05-.03 0-.04-.05Zm-.64.13q0-.04.02-.06.03 0 .04.04t-.01.05q-.03 0-.05-.03Z"/><path fill="#c8b100" d="M6.71 9.75q.05.03.07.1 0 0 .02-.03h.03v.03l-.01.07q0 .03-.03.05l-.04-.01-.04.03-.04-.04-.03-.07-.02-.03h.06q0-.05.03-.1m0 .3-.01-.03.01-.03-.06-.02-.07-.01h-.03v.01l.02.03a.2.2 0 0 0-.1.06l.12.03v.04h.02l.07-.04.04-.03m.1 0V10q0-.03-.02-.04l.05-.04.06-.02.03-.02v.05q.06 0 .1.03l-.09.06.03.04h-.11z"/><path stroke="#000" stroke-width=".1" d="m6.71 9.99.04-.03.04.01.03-.05v-.11l-.02.01-.02.02a.2.2 0 0 0-.07-.09l-.03.1h-.06l.02.03.03.07zm0 0-.01.04.02.03-.04.03q-.04.03-.07.03l-.03.01v-.04q-.05 0-.1-.03a.2.2 0 0 1 .1-.06q-.01 0-.02-.03l-.01-.01h.1zm.1.05v-.03q0-.03-.02-.04l.05-.04.06-.02.03-.02v.05q.06 0 .1.03l-.09.06.03.04h-.11z"/><path fill="#ad1519" d="M6.7 10.01q0-.05.06-.06t.06.06q0 .06-.06.06l-.05-.01z"/><path stroke="#000" stroke-width=".1" d="M6.7 10.01q0-.05.06-.06t.06.06q0 .06-.06.06l-.05-.01z"/><path fill="#c8b100" stroke="#000" stroke-width=".1" d="M7.44 9.65q.05.04.06.12l.03-.02h.04l-.02.04-.02.07-.04.06-.05-.03q-.03 0-.05.03l-.03-.06-.03-.07-.01-.05.04.01q.02.01.02.02 0-.08.06-.12Z"/><path fill="#c8b100" d="m7.4 10-.02-.04.01-.04q0-.01-.05-.04l-.08-.02h-.04v.02l.02.02a.2.2 0 0 0-.12.06q.05.04.12.05l-.01.03-.01.02.04-.01.08-.02zm.09 0a.1.1 0 0 0 0-.08l.06-.04.08-.02h.03v.02l-.01.02q.06 0 .11.06a.2.2 0 0 1-.11.05l.01.05-.03-.01-.08-.02zm.69-.25a.2.2 0 0 0-.07.1l-.02-.03h-.03v.03l.01.07q.01.05.02.05l.05-.01q.03 0 .04.03l.03-.04.04-.07.02-.03h-.06q0-.05-.03-.1m-.01.3.02-.03-.01-.03q0-.01.05-.02l.07-.01h.04l-.01.02-.01.02q.05 0 .09.06l-.11.03v.04h-.03l-.06-.04zm-.1 0V10q0-.03.02-.03l-.04-.05-.06-.02-.04-.02v.02l.01.03q-.06 0-.1.03.02.05.08.06l-.01.02-.01.02h.1z"/><path stroke="#000" stroke-width=".1" d="m8.18 9.99-.04-.03-.05.01-.02-.05v-.07l-.01-.04.03.01.02.02a.2.2 0 0 1 .07-.1v.01q.03.05.03.1h.06l-.02.03-.04.07zm0 0v.04l-.01.03.04.03.06.03.03.01v-.04q.06 0 .1-.03L8.33 10v-.02l.02-.02h-.11zm-.1.05v-.03l.01-.03-.04-.05-.06-.02-.04-.02v.02l.01.03q-.06 0-.1.03.02.05.08.06l-.01.02-.01.02h.1zM7.39 10l-.01-.03.01-.04q0-.01-.05-.04l-.08-.02h-.04v.02l.02.02a.2.2 0 0 0-.12.06q.05.04.12.05l-.01.03-.01.02.04-.01.08-.02.05-.03Zm.1 0a.1.1 0 0 0 0-.07l.06-.04.08-.02h.03v.02l-.01.02q.06 0 .11.06a.2.2 0 0 1-.11.05l.01.05-.03-.01-.08-.02-.06-.03Z"/><path fill="#ad1519" d="M8.06 10.01q0-.05.07-.06.05 0 .06.06a.1.1 0 0 1-.06.06l-.05-.01zm.73.14q-.03-.02-.07 0-.04.05-.02.07t.08 0q.03-.04.01-.07"/><path stroke="#000" stroke-width=".1" d="M8.79 10.15q-.03-.02-.07 0-.04.05-.02.07t.08 0q.03-.04.01-.07m-.73-.14q0-.05.07-.06.05 0 .06.06a.1.1 0 0 1-.06.06l-.05-.01z"/><path fill="#c8b100" d="m8.7 10.19.02-.03q.04-.03.07-.01s.04-.06.08-.08q.08-.02.1-.01a.1.1 0 0 0-.09-.09l-.07.03-.01-.03q-.01 0-.06.06v.11q0-.01-.02-.05l-.08-.05-.04-.02v.04q-.06 0-.12.02l.08.07-.02.02-.01.01.04.01h.13m-2.51 0-.02-.03q-.05-.03-.07-.01l-.08-.08q-.08-.02-.1-.01A.1.1 0 0 1 6 9.97l.08.03v-.03q.02 0 .07.06v.11q0-.01.02-.05l.07-.05.04-.02v.04q.06 0 .12.02l-.08.07.03.02.01.01-.04.01H6.2"/><path stroke="#000" stroke-width=".1" d="m6.19 10.2-.02-.04q-.05-.03-.07-.01l-.08-.08q-.08-.02-.1-.01A.1.1 0 0 1 6 9.97l.08.03v-.03q.02 0 .07.06v.11q0-.01.02-.05l.07-.05.04-.02v.04q.06 0 .12.02l-.08.07.03.02.01.01-.04.01H6.2Zm2.5-.01.03-.03q.04-.03.07-.01s.04-.06.08-.08q.08-.02.1-.01a.1.1 0 0 0-.09-.09l-.07.03-.01-.03q-.01 0-.06.06v.11q0-.01-.02-.05l-.08-.05-.04-.02v.04q-.06 0-.12.02l.08.07-.02.02-.01.01.04.01h.13Z"/><path fill="#ad1519" d="M6.1 10.15q.02-.02.07 0 .03.05.01.07-.03.03-.07 0-.04-.04-.01-.07m1.28-.2q0-.05.06-.06t.07.07q0 .05-.07.06h-.02a.1.1 0 0 1-.04-.06"/><path stroke="#000" stroke-width=".1" d="M7.38 9.96q0-.07.06-.07t.07.07-.07.06h-.02a.1.1 0 0 1-.04-.06Zm-1.29.19q.03-.02.08 0 .03.05.01.07-.03.03-.07 0-.04-.04-.01-.07Z"/><path fill="#005bbf" stroke="#000" stroke-width=".07" d="M7.3 9.02q.02-.12.14-.13.13.01.13.13-.01.11-.13.12a.13.13 0 0 1-.13-.12Z"/><path fill="#c8b100" stroke="#000" stroke-width=".07" d="M7.4 8.67v.06h-.07v.07h.07V9h-.09v.07h.25l.01-.05V9h-.1v-.2h.08v-.07h-.07v-.06H7.4Z"/><path fill="#ccc" d="M7.45 14.33q-.58 0-1.1-.26a.7.7 0 0 1-.4-.63v-1h3v1a.7.7 0 0 1-.4.63q-.51.26-1.1.26"/><path stroke="#000" stroke-width=".13" d="M7.45 14.33q-.58 0-1.1-.26a.7.7 0 0 1-.4-.63v-1h3v1a.7.7 0 0 1-.4.63q-.51.26-1.1.26Z"/><path fill="#ccc" d="M7.45 12.44h1.5v-1.67h-1.5z"/><path stroke="#000" stroke-width=".13" d="M7.45 12.44h1.5v-1.67h-1.5z"/><path fill="#ad1519" d="M7.45 13.44c0 .4-.34.71-.75.71a.74.74 0 0 1-.76-.72v-1h1.5z"/><path fill="#c8b100" stroke="#000" stroke-width=".13" d="M6.27 14.03q.07.04.18.08V12.4h-.18v1.63Z"/><path fill="#c8b100" stroke="#000" stroke-linejoin="round" stroke-width=".13" d="M5.94 13.43q0 .26.17.46v-1.48h-.17v1.02Z"/><path fill="#c7b500" stroke="#000" stroke-width=".13" d="M6.6 14.15h.18V12.4h-.17v1.75Z"/><path fill="#c8b100" stroke="#000" stroke-width=".13" d="m6.94 14.1.18-.07V12.4h-.18v1.7Z"/><path fill="#ad1519" d="M5.94 12.44h1.5v-1.67h-1.5z"/><path stroke="#000" stroke-width=".13" d="M5.94 12.44h1.5v-1.67h-1.5v1.67Z"/><path fill="#c8b100" stroke="#000" stroke-width=".13" d="M7.28 13.88q.13-.12.17-.39V12.4h-.17v1.48Z"/><path stroke="#000" stroke-width=".13" d="M7.45 13.44c0 .4-.34.71-.75.71a.74.74 0 0 1-.76-.72v-1h1.5v1"/><path fill="#ad1519" d="M8.96 12.44v1c0 .4-.34.71-.76.71a.74.74 0 0 1-.75-.72v-1z"/><path stroke="#000" stroke-width=".13" d="M8.96 12.44v1c0 .4-.34.71-.76.71a.74.74 0 0 1-.75-.72v-1h1.5"/><path fill="#c8b100" d="M7.72 13.2q0 .04-.03.04l-.03-.02v-.03H7.6a.1.1 0 0 0 .06.1v.11h.05v-.12l.05-.05h.14v-.04zm.68 0v.03h-.13v.02l.14.16-.04.03-.14-.16v.27h-.06v-.27l-.15.16-.04-.03.14-.16v-.02h-.13v-.04h.41m.08 0v.03h.14q.01.04.05.05v.12h.05v-.12a.1.1 0 0 0 .06-.07v-.02h-.05v.02q0 .02-.03.03t-.04-.03v-.02zm-.2.68q.05 0 .1-.03l.03.04-.13.04a.1.1 0 0 1-.08.06.1.1 0 0 1-.08-.06l-.15-.04.03-.04.12.03.05-.04v-.2h.05v.2q.03 0 .05.04m-.35-.07-.03.05-.11-.1-.08-.02a.1.1 0 0 1 0-.1l-.04-.16h.05q0 .06.03.13h.04l.13-.14.04.03-.13.14q.03.05 0 .1zm-.19-.15h.05v.05h-.05v-.05m-.07-.14h-.05v-.14l.05-.02v.16m.05-.16h.05v.14l-.05.02v-.16m.17.42.15.09.01-.05-.12-.07zm-.02.05.15.08-.04.03-.13-.06zm.06-.3.05.03.1-.1-.03-.05zm-.04-.03-.03-.04.1-.1.05.02zm.57.31.02.05.12-.1.07-.02a.1.1 0 0 0 .01-.1q.03-.08.04-.16h-.05l-.03.13h-.05l-.12-.14-.05.03.13.14a.1.1 0 0 0 0 .1zm.19-.15H8.6a.03.03 0 0 0 0 .05h.05v-.05m.07-.14h.05v-.14l-.05-.02v.17m-.05-.16h-.05v.08l-.01.06.05.02.01-.08zm-.17.42-.15.09-.02-.05.13-.07zm.02.05-.15.08.04.03.12-.06zm-.07-.3-.05.03-.09-.1.03-.05zm.04-.03.03-.04-.09-.1-.05.02zm-.62-.27.01.05h.14l.02-.05zm.65 0-.01.05h-.14l-.02-.05zm-.36.69q0-.03.04-.04l.02.01.01.03q0 .02-.03.03l-.03-.01zm.06-.25.05-.01v-.13l-.05-.02zm-.05 0-.05-.01v-.13l.05-.02z"/><path fill="#c8b100" d="M7.6 13.2q.02-.06.06-.07v-.16h.05v.16q.05.02.06.05h.14v.01h-.2l-.02-.01-.03.01zm.39 0v-.02h.13L7.97 13l.04-.03.15.17v-.23h.06v.22l.16-.17.04.03-.16.18.01.01h.13v.01zm.67 0 .04-.02.03.01h.05q0-.05-.06-.06v-.16h-.05v.16l-.05.05h-.14v.01zm-.94-.47.2.2.03-.02-.19-.21.01-.02h.14v-.05h-.14a.1.1 0 0 0-.08-.06.1.1 0 0 0-.07.05l-.01.03a.1.1 0 0 0 .05.07v.17h.05zm1 0v.16h-.05v-.16h-.01l-.19.2-.04-.03.2-.21v-.01h-.15v-.05h.14a.1.1 0 0 1 .08-.06.1.1 0 0 1 .07.05l.01.03a.1.1 0 0 1-.06.07m-.5 0v.1h-.05v-.1a.1.1 0 0 1-.06-.05H8v-.05h.12a.1.1 0 0 1 .08-.06q.06 0 .08.05h.13v.06h-.13zm-.56.12-.05.01V13l.05.01zm.05 0 .06.01V13L7.7 13zm.96 0-.05.01V13l.05.01zm.05 0 .05.01V13l-.05.01zm-.8.03.05-.03.1.1-.04.05zm-.04.03-.03.04.1.1.05-.02zm.58-.04-.05-.02-.1.1.04.05zm.04.03.03.05-.1.1-.04-.02zm-.64.28.02-.05h.14l.02.05zm-.2-.53q0-.03.03-.03l.02.01.01.02q0 .03-.03.03h-.02zm.37.03-.01.05h-.14l-.02-.05zm0-.05-.01-.05h-.14l-.02.05zm.5.55-.02-.05h-.14l-.02.05zm.13-.53q0-.03.04-.03l.02.01.01.02q0 .03-.03.03h-.03zm-.5 0q0-.03.03-.03h.02v.01l.02.02q0 .03-.04.03zm.2.03v.05h.15l.02-.05zm0-.05v-.05h.15l.02.05zm-.2.15-.05.02v.13l.06.02zm.06 0 .05.02v.13l-.05.02z"/><path stroke="#c8b100" stroke-width=".07" d="m7.86 13.83.15.08-.03.03-.13-.06zm.41.05.12-.03.02.04-.13.04a.1.1 0 0 1-.08.06.1.1 0 0 1-.08-.06l-.15-.04.03-.04.12.03.05-.04v-.2h.05v.2q.03 0 .05.04Zm-.15-.63v-.02h-.13v-.04h.13v-.01L7.97 13l.04-.03.15.17v-.23h.06v.22l.16-.17.04.03-.16.18.01.01h.13v.05h-.13v.02l.14.16-.04.03-.14-.16v.27h-.06v-.27l-.16.16-.03-.03zm-.4-.53.2.22.03-.03-.19-.21.01-.02h.14v-.05h-.14a.1.1 0 0 0-.08-.06.1.1 0 0 0-.08.08.1.1 0 0 0 .05.07v.17h.05v-.17zm.2 1.1-.02.04-.11-.1-.08-.02-.03-.05.02-.06-.03-.15h.05q0 .06.03.13h.04l.13-.14.04.03-.13.14q.03.05 0 .1zm-.26-.42v-.12a.1.1 0 0 1-.05-.07q0-.06.05-.08v-.16h.05v.16q.05.02.06.05h.14v.05h-.14l-.05.05v.12zm.08.26a.03.03 0 0 1 .05 0v.05h-.05l-.01-.02.01-.03Zm-.07-.14h-.05v-.14l.04-.02v.08zm.05-.16h.05v.14l-.05.02v-.16Zm.17.42q.07.06.15.09l.01-.05-.12-.07z"/><path stroke="#c8b100" stroke-width=".07" d="m7.93 13.53.05.03.1-.1-.03-.05zm-.04-.03-.03-.04.1-.1.05.02zm-.23-.3q0-.02.03-.02t.03.03q0 .02-.03.03h-.02l-.01-.03Zm.8.61.02.05.12-.1.08-.02.02-.05-.02-.06q.03-.07.04-.15h-.05l-.03.13h-.05l-.12-.14-.05.03.13.14a.1.1 0 0 0 0 .1l-.09.07Zm.26-.4v-.13a.1.1 0 0 0 .06-.07.1.1 0 0 0-.06-.08v-.16h-.05v.16l-.05.05h-.14v.05h.14q.01.04.05.05v.12zm-.07.25H8.6a.03.03 0 0 0 0 .05h.05v-.05Zm.06-.14h.06v-.14l-.05-.02v.16Zm-.04-.16h-.05v.08l-.01.06.05.02.01-.08zm.05-.63v.16h-.05v-.16h-.01l-.19.2-.04-.03.2-.22h-.15v-.05h.14a.1.1 0 0 1 .08-.06.1.1 0 0 1 .08.08.1.1 0 0 1-.06.07Zm-.5 0v.1h-.05v-.1l-.05-.05h-.13v-.05h.13a.1.1 0 0 1 .07-.06q.06 0 .08.05h.13v.06h-.13l-.05.04Zm.28 1.05-.15.09-.02-.05.13-.07zm.02.05-.15.08.04.03.12-.06zm-.85-.98-.06.01V13l.06.01v-.16Zm.05 0 .05.01V13l-.05.01v-.17zm.95 0h-.05V13l.05.02z"/><path stroke="#c8b100" stroke-width=".07" d="m8.72 12.85.05.01V13l-.05.01v-.17Zm-.27.68-.05.02-.09-.1.03-.04zm.04-.03.04-.04-.1-.1-.05.02zm-.56-.62.05-.03.09.1-.03.05zm-.05.03-.03.04.1.1.05-.02zm.58-.04-.05-.02-.1.1.04.05zm.04.03.03.05-.1.1-.04-.02zm-.63.28.01-.05h.14l.02.05zm0 .05.01.05h.14l.02-.05zm-.21-.57q0-.03.03-.04.03 0 .04.04 0 .03-.04.03h-.02zm.37.02-.01.05h-.14l-.02-.05zm0-.05-.01-.05h-.14l-.02.05zm.63.58q0-.03.04-.03.03 0 .03.03t-.03.03h-.01l-.02-.01v-.02Zm-.13-.02-.02-.05h-.14l-.02.05zm0 .04-.02.05h-.14l-.02-.05zm-.37.69q0-.03.04-.03.03 0 .03.03t-.03.03h-.03zm.06-.24.06-.02v-.13l-.06-.02zm-.05 0-.05-.02v-.13l.05-.02zm.5-1.02q0-.03.03-.04l.03.02v.02q0 .03-.03.03l-.03-.01zm-.51 0q0-.03.03-.04l.04.02a.03.03 0 0 1-.03.05l-.03-.01zm.2.02v.05h.15l.02-.05h-.17Zm0-.05v-.05h.15l.02.05zm-.2.16-.04.01v.14l.05.01v-.17Zm.06 0h.05v.14l-.05.02z"/><path fill="#058e6e" d="M8.12 13.2a.08.08 0 0 1 .16 0 .1.1 0 0 1-.08.08q-.08 0-.08-.07"/><path fill="#db4446" d="M8.22 11.18v-.03h-.07l-.08-.04-.04-.04-.08.01.06.04.05.05h.16"/><path stroke="#000" stroke-width=".1" d="M8.22 11.18v-.03h-.07l-.08-.04-.04-.04-.08.01.06.04.05.05h.16Z"/><path fill="#ed72aa" d="M8.44 11.1v.1l.01.03v.03l-.01-.02-.02-.01v.03q0 0 .02.03l.03.04v.05l-.03-.03-.03-.02.02.05-.01.05q0 0-.03-.04l-.03-.02.02.06v.07l-.03-.03-.03-.02.02.03q-.01.03.05.14c.03.04.07.11.17.1.1-.03.06-.16.04-.22l-.03-.14.01-.1v-.1l.04-.07v-.04l.01-.04.02.04v.04q0-.01.04-.05l.06-.04.01-.02s0 .06-.02.09l-.05.06.04-.01h.02l-.04.05-.03.06q-.02.05-.05.05c-.04.03-.02.13-.02.15.01.01.07.14.07.17q.01.06-.05.14c-.04.04-.1.04-.1.04q-.04.01-.04.09 0 .06.03.07l.04.02.01.02v.03l-.03.05-.02.08v.04s.03.03.01.04l-.03-.01-.03.01v-.02l-.01-.02-.02.01v.03l-.03-.02H8.4q0-.03.02-.04.02 0 .01-.02h-.04v-.05h.05q.01 0 .03-.02v-.04L8.41 12v-.03.07l-.03-.02-.02-.04v.06l-.02-.02-.03-.03-.02-.05v-.04l.02-.03h-.09v.09l.01.06-.02.03h-.1l-.04-.02-.02.02q.01.03-.01.02h-.03l-.03-.01q0-.02.02-.03v-.01h-.02l-.03.01V12c0-.02-.03-.04 0-.03h.03v-.03s-.03 0-.01-.02l.02-.01q0-.02.02-.02.01 0 .02.04.02.03.06.02l.04-.01v-.07l-.01.02-.02.03v-.09l-.01.03v.03q-.02 0-.02-.05v-.06s.02-.05.06-.05h.15l-.11-.07-.06-.06-.02-.05h-.03l-.04.04-.02.03v-.06q0 .02-.03.05l-.04.03v-.05l-.03.03-.06.01v.04l-.01.02-.03-.01H7.8v-.04h-.04v-.05h.04q0-.02-.02-.02t-.02-.03l.02-.02q0-.01.02-.01l.03.03h.06l.05-.04.05-.03-.04-.03-.03-.03-.05-.02-.06-.01.03-.01.02-.02h.01-.04l-.04-.02h-.03l.05-.01h.03l-.04-.02-.01-.03-.02-.02H7.7v-.03q-.02 0-.01-.03h.04l-.02-.02q-.03 0-.03-.03l.03-.01q0-.02.02-.02l.04.03v-.03l.01-.03.03.02h.03l-.01.03q-.02.02-.01.05l.03.04.06.03.06.04.03.01h.11q.04-.03.03-.04c0-.02-.04-.03-.03-.04q0-.02.03-.02.05 0 .07-.03 0-.04-.03-.05-.04 0-.06-.04v-.03l.04-.01h.06l.01-.04h.05l.08.04z"/><path stroke="#000" stroke-width=".1" d="M8.44 11.1v.1l.01.03v.03l-.01-.02-.02-.01v.03q0 0 .02.03l.03.04v.05l-.03-.03-.03-.02.02.05-.01.05q0 0-.03-.04l-.03-.02.02.06v.07l-.03-.03-.03-.02.02.03q-.01.03.05.14c.03.04.07.11.17.1.1-.03.06-.16.04-.22l-.03-.14.01-.1v-.1l.04-.07v-.04l.01-.04.02.04v.04q0-.01.04-.05l.06-.04.01-.02s0 .06-.02.09l-.05.06.04-.01h.02l-.04.05-.03.06q-.02.05-.05.05c-.04.03-.02.13-.02.15.01.01.07.14.07.17q.01.06-.05.14c-.04.04-.1.04-.1.04q-.04.01-.04.09 0 .06.03.07l.04.02.01.02v.03l-.03.05-.02.08v.04s.03.03.01.04l-.03-.01-.03.01v-.02l-.01-.02-.02.01v.03l-.03-.02H8.4q0-.03.02-.04.02 0 .01-.02h-.04v-.05h.05q.01 0 .03-.02v-.04L8.41 12v-.03.07l-.03-.02-.02-.04v.06l-.02-.02-.03-.03-.02-.05v-.04l.02-.03h-.09v.09l.01.06-.02.03h-.1l-.04-.02-.02.02q.01.03-.01.02h-.03l-.03-.01q0-.02.02-.03v-.01h-.02l-.03.01V12c0-.02-.03-.04 0-.03h.03v-.03s-.03 0-.01-.02l.02-.01q0-.02.02-.02.01 0 .02.04.02.03.06.02l.04-.01v-.07l-.01.02-.02.03v-.09l-.01.03v.03q-.02 0-.02-.05v-.06s.02-.05.06-.05h.15l-.11-.07-.06-.06-.02-.05h-.03l-.04.04-.02.03v-.06q0 .02-.03.05l-.04.03v-.05l-.03.03-.06.01v.04l-.01.02-.03-.01H7.8v-.04h-.04v-.05h.04q0-.02-.02-.02t-.02-.03l.02-.02q0-.01.02-.01l.03.03h.06l.05-.04.05-.03-.04-.03-.03-.03-.05-.02-.06-.01.03-.01.02-.02h.01-.04l-.04-.02h-.03l.05-.01h.03l-.04-.02-.01-.03-.02-.02H7.7v-.03q-.02 0-.01-.03h.04l-.02-.02q-.03 0-.03-.03l.03-.01q0-.02.02-.02l.04.03v-.03l.01-.03.03.02h.03l-.01.03q-.02.02-.01.05l.03.04.06.03.06.04.03.01h.11q.04-.03.03-.04c0-.02-.04-.03-.03-.04q0-.02.03-.02.05 0 .07-.03 0-.04-.03-.05-.04 0-.06-.04v-.03l.04-.01h.06l.01-.04h.05l.08.04z"/><path d="M8.13 11.09v-.03h.01v.02z"/><path stroke="#000" stroke-width=".07" d="M8.13 11.09v-.03h.01v.02z"/><path d="M8.25 11.04h.03l.03.03-.02-.01h-.03v-.01"/><path stroke="#000" stroke-width=".03" d="M8.25 11.04h.03l.03.03-.02-.01h-.03v-.01Z"/><path stroke="#000" stroke-width=".07" d="m8.42 11.23-.02-.02v-.02"/><path fill="#db4446" d="m7.8 11.08.02.01h.02v-.02q-.01-.05-.03-.04v.03z"/><path stroke="#000" stroke-width=".1" d="m7.8 11.08.02.01h.02v-.02q-.01-.05-.03-.04v.03z"/><path fill="#db4446" d="m7.73 11.11-.04-.02q-.05.01-.05.03h.04l.01.03.02-.02z"/><path stroke="#000" stroke-width=".1" d="m7.73 11.11-.04-.02q-.05.01-.05.03h.04l.01.03.02-.02z"/><path fill="#db4446" d="M7.7 11.2q-.01 0-.04.03t-.01.04q0-.01.02-.02h.04v-.02z"/><path stroke="#000" stroke-width=".1" d="M7.7 11.2q-.01 0-.04.03t-.01.04q0-.01.02-.02h.04v-.02z"/><path d="m8.13 11.2.01-.01.01.01z"/><path stroke="#000" stroke-width=".07" d="m8.13 11.2.01-.01.01.01h-.02"/><path d="M8.16 11.2v-.01l.02.01z"/><path stroke="#000" stroke-width=".07" d="M8.16 11.2v-.01l.02.01h-.03"/><path d="m8.14 11.1.03.01-.02.02z"/><path stroke="#000" stroke-width=".07" d="m8.14 11.1.03.01-.02.02v-.02"/><path d="M8.17 11.11h.02l-.01.02z"/><path stroke="#000" stroke-width=".07" d="M8.17 11.11h.02l-.01.02z"/><path stroke="#000" stroke-width=".1" d="m8.1 11.55.04-.02.03-.03m-.16-.2q-.02 0-.03.02-.02.03-.01.03h.12l-.02.03v.04l-.01.05.03-.01q.03 0 .05-.03l.03-.03v.1l.03-.02.03-.02v-.04q0 .01.02.05l.02.05q0-.01.02-.04l.02-.03v-.03.03zm-.03.17.03-.04.03-.02.03-.01z"/><path fill="#db4446" d="M7.77 11.51h-.04q-.03.01-.03.02h.03l.02.01v-.01z"/><path stroke="#000" stroke-width=".1" d="M7.77 11.51h-.04q-.03.01-.03.02h.03l.02.01v-.01l.02-.02Z"/><path fill="#db4446" d="M7.74 11.6h-.03q-.02.04-.02.05 0-.01.03-.01h.03v-.04"/><path stroke="#000" stroke-width=".1" d="M7.74 11.6h-.03q-.02.04-.02.05 0-.01.03-.01h.03v-.04Z"/><path fill="#db4446" d="M7.79 11.68v.04l.04.02v-.05H7.8"/><path stroke="#000" stroke-width=".1" d="M8.29 11.72s.06.04.06.07q-.01.06-.03.07m-.53-.18v.04l.04.02v-.05H7.8Z"/><path fill="#db4446" d="M8 11.9q0-.01-.03-.03-.04.01-.04.03h.03l.02.02h.01z"/><path stroke="#000" stroke-width=".1" d="M8 11.9q0-.01-.03-.03-.04.01-.04.03h.03l.02.02h.01z"/><path fill="#db4446" d="M7.94 11.98H7.9l-.01.05.03-.02.03.01v-.04"/><path stroke="#000" stroke-width=".1" d="M7.94 11.98H7.9l-.01.05.03-.02.03.01v-.04Z"/><path fill="#db4446" d="M8 12.07v.03l.03.03v-.03l.02-.03z"/><path stroke="#000" stroke-width=".1" d="M8 12.07v.03l.03.03v-.03l.02-.03H8Z"/><path fill="#db4446" d="M8.37 12.1h-.03q-.03.03-.03.05l.04-.02.03.01v-.04"/><path stroke="#000" stroke-width=".1" d="M8.37 12.1h-.03q-.03.03-.03.05l.04-.02.03.01v-.04Z"/><path fill="#db4446" d="M8.39 12.2q-.01 0-.01.03l.01.03.01-.03.03-.01-.02-.02z"/><path stroke="#000" stroke-width=".1" d="M8.39 12.2q-.01 0-.01.03l.01.03.01-.03.03-.01-.02-.02z"/><path fill="#db4446" d="M8.48 12.22v.04l.04.02v-.06h-.04"/><path stroke="#000" stroke-width=".1" d="M8.48 12.22v.04l.04.02v-.06h-.04Z"/><path fill="#ffd691" d="M7.53 13.89q.09.03.09.12-.01.11-.16.12t-.16-.12q0-.1.1-.12l-.01-.02-.03-.02h.04l.03.02.01-.02.02-.02.02.02v.02l.03-.02h.03l-.01.02z"/><path stroke="#000" stroke-width=".13" d="M7.53 13.89q.09.03.09.12-.01.11-.16.12t-.16-.12q0-.1.1-.12l-.01-.02-.03-.02h.04l.03.02.01-.02.02-.02.02.02v.02l.03-.02h.03l-.01.02z"/><path fill="#058e6e" d="M7.45 14.2s-.12-.07-.17-.08q-.12-.02-.18 0l.06.04.1.06c.1.02.19-.01.19-.01m.03.02s.08-.08.16-.1l.2.02-.06.03c-.01 0-.06.05-.12.05h-.18"/><path stroke="#000" stroke-width=".13" d="M7.48 14.22s.08-.08.16-.1l.2.02-.06.03c-.01 0-.06.05-.12.05h-.18Zm-.03-.01-.17-.1H7.1l.06.05.1.06c.1.02.19-.01.19-.01Z"/><path fill="#ad1519" stroke="#000" stroke-width=".13" d="M7.46 14.12a.15.15 0 0 1 0-.22.2.2 0 0 1 .05.1.2.2 0 0 1-.05.12Z"/><path fill="#058e6e" d="m7.43 14.28.02-.08v-.07h.02v.14h-.02z"/><path stroke="#000" stroke-width=".13" d="m7.43 14.28.02-.08v-.07h.02v.14h-.02z"/><path fill="#fff" d="M8.94 9.96q0-.03.03-.03t.03.03a.03.03 0 0 1-.06 0"/><path stroke="#000" stroke-width=".1" d="M8.94 9.96q0-.03.03-.03t.03.03a.03.03 0 0 1-.06 0Z"/><path fill="#fff" d="M8.98 9.88q0-.03.04-.03.03 0 .03.03t-.03.03z"/><path stroke="#000" stroke-width=".1" d="M8.98 9.88q0-.03.04-.03.03 0 .03.03t-.03.03l-.03-.03Z"/><path fill="#fff" d="M9.01 9.79q0-.03.03-.03.04 0 .04.03l-.03.03h-.03v-.03"/><path stroke="#000" stroke-width=".1" d="M9.01 9.79q0-.03.03-.03.04 0 .04.03l-.03.03h-.03v-.03Z"/><path fill="#fff" d="M9.01 9.69q0-.03.04-.03.02 0 .03.03a.03.03 0 0 1-.05.02z"/><path stroke="#000" stroke-width=".1" d="M9.01 9.69q0-.03.04-.03.02 0 .03.03a.03.03 0 0 1-.05.02l-.01-.02Z"/><path fill="#fff" d="M9 9.6q0-.04.02-.04.04 0 .04.03 0 .04-.03.04a.03.03 0 0 1-.04-.04"/><path stroke="#000" stroke-width=".1" d="M9 9.6q0-.04.02-.04.04 0 .04.03 0 .04-.03.04a.03.03 0 0 1-.04-.04Z"/><path fill="#fff" d="m8.94 9.5.03-.03q.04 0 .04.03a.03.03 0 0 1-.06.03z"/><path stroke="#000" stroke-width=".1" d="m8.94 9.5.03-.03q.04 0 .04.03a.03.03 0 0 1-.06.03V9.5z"/><path fill="#fff" d="M8.88 9.43q0-.03.03-.03t.03.03-.03.03a.03.03 0 0 1-.04-.03"/><path stroke="#000" stroke-width=".1" d="M8.88 9.43q0-.03.03-.03t.03.03-.03.03a.03.03 0 0 1-.04-.03Z"/><path fill="#fff" d="M8.8 9.37q0-.03.03-.03a.03.03 0 1 1 0 .06q-.03 0-.03-.03"/><path stroke="#000" stroke-width=".1" d="M8.8 9.37q0-.03.03-.03a.03.03 0 1 1 0 .06q-.03 0-.03-.03Z"/><path fill="#fff" d="M8.7 9.32q0-.03.04-.03.02 0 .03.03t-.03.03a.03.03 0 0 1-.04-.03"/><path stroke="#000" stroke-width=".1" d="M8.7 9.32q0-.03.04-.03.02 0 .03.03t-.03.03a.03.03 0 0 1-.04-.03Z"/><path fill="#fff" d="M8.6 9.28q0-.02.04-.03a.03.03 0 1 1-.03.03"/><path stroke="#000" stroke-width=".1" d="M8.6 9.28q0-.02.04-.03a.03.03 0 1 1-.03.03Z"/><path fill="#fff" d="M8.5 9.27a.03.03 0 0 1 .06 0 .03.03 0 0 1-.06 0"/><path stroke="#000" stroke-width=".1" d="M8.5 9.27a.03.03 0 0 1 .06 0 .03.03 0 0 1-.06 0Z"/><path fill="#fff" d="M8.4 9.26a.03.03 0 0 1 .06 0 .03.03 0 0 1-.07 0"/><path stroke="#000" stroke-width=".1" d="M8.4 9.26a.03.03 0 0 1 .06 0 .03.03 0 0 1-.07 0Z"/><path fill="#fff" d="M8.3 9.27q0-.03.02-.04.04 0 .04.04l-.03.03a.03.03 0 0 1-.04-.03"/><path stroke="#000" stroke-width=".1" d="M8.3 9.27q0-.03.02-.04.04 0 .04.04l-.03.03a.03.03 0 0 1-.04-.03Z"/><path fill="#fff" d="M8.2 9.27q0-.03.02-.04.03 0 .04.04l-.03.03a.03.03 0 0 1-.04-.03"/><path stroke="#000" stroke-width=".1" d="M8.2 9.27q0-.03.02-.04.03 0 .04.04l-.03.03a.03.03 0 0 1-.04-.03Z"/><path fill="#fff" d="M8.24 9.35q0-.03.03-.03.04 0 .04.03a.03.03 0 0 1-.07 0m.02.1q0-.03.03-.03t.03.03a.03.03 0 0 1-.06 0m0 .1q0-.04.04-.04a.03.03 0 1 1-.03.03m-.03.08q0-.03.04-.03.03 0 .03.03t-.03.03zm-.05.08q0-.03.03-.03.04 0 .04.03t-.04.03-.03-.03"/><path stroke="#000" stroke-width=".1" d="M8.18 9.7q0-.01.03-.02.04 0 .04.03t-.04.03-.03-.03m.06-.36q0-.03.03-.03.04 0 .04.03a.03.03 0 0 1-.07 0Zm.02.1q0-.03.03-.03t.03.03a.03.03 0 0 1-.06 0Zm0 .1q0-.04.04-.04a.03.03 0 1 1-.03.03Zm-.03.08q0-.03.04-.03.03 0 .03.03t-.03.03l-.03-.03Z"/><path fill="#fff" d="M8.11 9.2q0-.02.04-.03a.03.03 0 1 1-.03.03"/><path stroke="#000" stroke-width=".1" d="M8.11 9.2q0-.02.04-.03a.03.03 0 1 1-.03.03Z"/><path fill="#fff" d="M8.03 9.16q0-.04.03-.04t.03.04-.03.03z"/><path stroke="#000" stroke-width=".1" d="M8.03 9.16q0-.04.03-.04t.03.04-.03.03z"/><path fill="#fff" d="M7.92 9.13q0-.04.04-.04.02 0 .03.04l-.03.03q-.04 0-.04-.04"/><path stroke="#000" stroke-width=".1" d="M7.92 9.13q0-.04.04-.04.02 0 .03.04l-.03.03q-.04 0-.04-.04Z"/><path fill="#fff" d="m7.82 9.1.03-.02q.04 0 .04.03l-.03.03a.03.03 0 0 1-.04-.03"/><path stroke="#000" stroke-width=".1" d="m7.82 9.1.03-.02q.04 0 .04.03l-.03.03a.03.03 0 0 1-.04-.03Z"/><path fill="#fff" d="M7.72 9.1q0-.01.03-.02.03 0 .03.03a.03.03 0 0 1-.06 0"/><path stroke="#000" stroke-width=".1" d="M7.72 9.1q0-.01.03-.02.03 0 .03.03a.03.03 0 0 1-.06 0Z"/><path fill="#fff" d="M7.62 9.13q0-.04.03-.04t.03.04a.03.03 0 0 1-.06 0"/><path stroke="#000" stroke-width=".1" d="M7.62 9.13q0-.04.03-.04t.03.04a.03.03 0 0 1-.06 0Z"/><path fill="#fff" d="M7.52 9.16q0-.03.03-.03t.03.03q0 .02-.03.03l-.03-.02z"/><path stroke="#000" stroke-width=".1" d="M7.52 9.16q0-.03.03-.03t.03.03q0 .02-.03.03l-.03-.02z"/><path fill="#fff" d="M5.88 9.96q0-.03.03-.03t.03.03-.03.03z"/><path stroke="#000" stroke-width=".1" d="M5.88 9.96q0-.03.03-.03t.03.03-.03.03z"/><path fill="#fff" d="M5.83 9.88q0-.03.03-.03t.03.03-.03.03z"/><path stroke="#000" stroke-width=".1" d="M5.83 9.88q0-.03.03-.03t.03.03-.03.03z"/><path fill="#fff" d="M5.8 9.79q0-.03.03-.03t.03.03a.03.03 0 0 1-.06 0"/><path stroke="#000" stroke-width=".1" d="M5.8 9.79q0-.03.03-.03t.03.03a.03.03 0 0 1-.06 0Z"/><path fill="#fff" d="M5.8 9.69q0-.03.03-.03t.03.03a.03.03 0 0 1-.06 0"/><path stroke="#000" stroke-width=".1" d="M5.8 9.69q0-.03.03-.03t.03.03a.03.03 0 0 1-.06 0Z"/><path fill="#fff" d="M5.82 9.6q0-.04.03-.04t.03.03q0 .04-.03.04a.03.03 0 0 1-.03-.04"/><path stroke="#000" stroke-width=".1" d="M5.82 9.6q0-.04.03-.04t.03.03q0 .04-.03.04a.03.03 0 0 1-.03-.04Z"/><path fill="#fff" d="M5.87 9.5q0-.02.03-.03t.03.03q0 .03-.03.03z"/><path stroke="#000" stroke-width=".1" d="M5.87 9.5q0-.02.03-.03t.03.03q0 .03-.03.03l-.03-.03Z"/><path fill="#fff" d="M5.94 9.43q0-.03.03-.03t.03.03-.03.03z"/><path stroke="#000" stroke-width=".1" d="M5.94 9.43q0-.03.03-.03t.03.03-.03.03z"/><path fill="#fff" d="M6.02 9.37q0-.03.03-.03a.03.03 0 1 1-.03.03"/><path stroke="#000" stroke-width=".1" d="M6.02 9.37q0-.03.03-.03a.03.03 0 1 1-.03.03Z"/><path fill="#fff" d="M6.11 9.32q0-.03.03-.03t.03.03-.03.03z"/><path stroke="#000" stroke-width=".1" d="M6.11 9.32q0-.03.03-.03t.03.03-.03.03z"/><path fill="#fff" d="M6.2 9.28q0-.02.04-.03a.03.03 0 1 1-.03.03"/><path stroke="#000" stroke-width=".1" d="M6.2 9.28q0-.02.04-.03a.03.03 0 1 1-.03.03Z"/><path fill="#fff" d="M6.31 9.27q0-.03.04-.04a.03.03 0 0 1 0 .07q-.03 0-.03-.03"/><path stroke="#000" stroke-width=".1" d="M6.31 9.27q0-.03.04-.04a.03.03 0 0 1 0 .07q-.03 0-.03-.03Z"/><path fill="#fff" d="M6.42 9.26a.03.03 0 0 1 .06 0 .03.03 0 0 1-.06 0"/><path stroke="#000" stroke-width=".1" d="M6.42 9.26a.03.03 0 0 1 .06 0 .03.03 0 0 1-.06 0Z"/><path fill="#fff" d="M6.52 9.27q0-.03.03-.04.03 0 .03.04 0 .02-.03.03z"/><path stroke="#000" stroke-width=".1" d="M6.52 9.27q0-.03.03-.04.03 0 .03.04 0 .02-.03.03z"/><path fill="#fff" d="M6.62 9.27q0-.03.03-.04.04 0 .04.04 0 .02-.04.03z"/><path stroke="#000" stroke-width=".1" d="M6.62 9.27q0-.03.03-.04.04 0 .04.04 0 .02-.04.03l-.03-.03Z"/><path fill="#fff" stroke="#000" stroke-width=".1" d="M6.57 9.35q0-.03.03-.03t.03.03a.03.03 0 0 1-.06 0Zm-.02.1q0-.03.03-.03t.03.03a.03.03 0 0 1-.06 0Zm0 .1q0-.04.03-.04t.03.03a.03.03 0 0 1-.06 0Zm.03.08q0-.03.03-.03t.03.03-.03.03zm.05.08q0-.03.03-.03a.03.03 0 1 1-.03.03Z"/><path fill="#fff" d="M6.7 9.2q0-.02.03-.03a.03.03 0 1 1-.03.03"/><path stroke="#000" stroke-width=".1" d="M6.7 9.2q0-.02.03-.03a.03.03 0 1 1-.03.03Z"/><path fill="#fff" d="M6.79 9.16q0-.04.03-.04t.03.04-.03.03z"/><path stroke="#000" stroke-width=".1" d="M6.79 9.16q0-.04.03-.04t.03.04-.03.03z"/><path fill="#fff" d="M6.88 9.13q0-.04.04-.04.03 0 .03.04 0 .02-.03.03a.03.03 0 0 1-.03-.04"/><path stroke="#000" stroke-width=".1" d="M6.88 9.13q0-.04.04-.04.03 0 .03.04 0 .02-.03.03a.03.03 0 0 1-.03-.04Z"/><path fill="#fff" d="M6.99 9.1q0-.01.03-.02.03 0 .03.03a.03.03 0 0 1-.06 0"/><path stroke="#000" stroke-width=".1" d="M6.99 9.1q0-.01.03-.02.03 0 .03.03a.03.03 0 0 1-.06 0Z"/><path fill="#fff" d="M7.1 9.1q0-.01.02-.02.03 0 .03.03a.03.03 0 0 1-.06 0"/><path stroke="#000" stroke-width=".1" d="M7.1 9.1q0-.01.02-.02.03 0 .03.03a.03.03 0 0 1-.06 0Z"/><path fill="#fff" d="M7.2 9.13q0-.04.03-.04t.03.04a.03.03 0 0 1-.06 0"/><path stroke="#000" stroke-width=".1" d="M7.2 9.13q0-.04.03-.04t.03.04a.03.03 0 0 1-.06 0Z"/><path fill="#fff" d="M7.3 9.16q0-.03.02-.03.04 0 .04.03a.03.03 0 0 1-.06 0"/><path stroke="#000" stroke-width=".1" d="M7.3 9.16q0-.03.02-.03.04 0 .04.03a.03.03 0 0 1-.06 0Z"/><path fill="#c8b100" d="M6.46 11.15h-.03v-.03h-.05v.11h.05v.08h-.1v.22h.05v.45h-.1v.23h.84v-.23h-.1v-.45h.05v-.22h-.1v-.08H7v-.1h-.05v.02h-.02v-.03h-.05v.03h-.04v-.03H6.8v.11h.05v.08h-.1v-.24h.05v-.11h-.05v.03h-.03v-.03h-.05v.03h-.03v-.03H6.6v.1h.06v.25h-.1v-.08h.04v-.1h-.05v.02h-.02v-.03h-.06z"/><path stroke="#000" stroke-width=".1" d="M6.86 11.23h.1m-.53.08v-.08h-.05v-.1h.05v.02h.03v-.03h.06v.03h.02v-.03h.05v.11h-.05m-.1.08h-.11v.22h.05v.45h-.1m.15-.67h.53m-.69.67v.23m0-.23h.86m-.86.23h.85v-.23h-.1v-.45h.05v-.22h-.1m-.7.9h.86m-.17-.9v-.08h.05v-.1h-.05v.02h-.02v-.03h-.05v.03h-.04v-.03H6.8v.11h.05v.08h-.1v-.24h.05v-.11h-.05v.03h-.03v-.03h-.05v.03h-.03v-.03H6.6v.1h.06m0 0v.25h-.1v-.08m.1-.16h.1m-.2.16h-.12m-.16.92h.86m-.86-.06h.86m-.86-.05h.86m-.75-.11h.63m-.63-.06h.63m-.63-.06h.63m-.63-.05h.63m-.63-.06h.63m-.63-.06h.63m-.63-.05h.63m-.68-.06h.74m-.74-.05h.74m-.74-.06h.74m-.74-.05h.74m-.43-.11h.11m-.1-.06h.1m-.1-.06h.1m-.1-.05h.1m-.16-.07h.21m-.37.24h.11m-.16-.07h.21m-.2 1.02v-.06m0-.06v-.05m-.06.05v.06m.1 0v-.06m.05.12v-.06m0-.06v-.05m0-.06v-.05m0-.06v-.06m-.05.23v-.06m-.1.06v-.06m.21 0v.06m.05-.06v-.05m-.16-.06v.06m.11-.06v.06m.1-.06v.06m-.05-.05v-.07m.06-.05v.05m0-.16v.05m-.06-.1v.05m.06-.11v.05m-.1-.05v.05m-.12-.05v.05m-.05-.1v.05m.1-.06v.06m.11-.06v.06m.06-.11v.05m-.1-.05v.05m-.12-.05v.05m-.05-.11v.06m.21-.06v.06m-.1-.17v.06m.48-.06h-.11m.15-.07h-.2m.2 1.02v-.06m0-.05v-.06m.06.06v.05m-.1 0v-.06m-.06.12v-.06m0-.06v-.05m0-.06v-.05m0-.06v-.06m.06.23v-.06m.1.06v-.06m-.22 0v.06m-.04-.06v-.05m.16-.06v.06m-.11-.06v.06m-.1-.06v.06m.05-.06v-.06m-.06-.05v.05m0-.17v.06m.06-.11v.05m-.06-.1v.05m.1-.06v.06m.12-.06v.06m.05-.11v.05m-.1-.05v.05m-.11-.05v.05m-.06-.1v.05m.1-.06v.06m.12-.06v.06m.05-.11v.05m-.21-.05v.05m.1-.16v.05m-.22.56v-.06m0-.17v-.05m0 .17v-.06m0-.17v-.05m0-.06v-.05m0-.11v-.06m0-.05v-.06"/><path fill="#c8b100" stroke="#000" stroke-width=".1" d="M6.84 12.2v-.14c0-.03-.01-.11-.14-.11s-.14.08-.14.1v.16z"/><path fill="#c8b100" stroke="#000" stroke-width=".1" d="m6.6 12.07-.07-.01q0-.05.03-.08l.07.04zm.2 0 .06-.01q0-.05-.03-.08l-.06.04zM6.71 12l.03-.07h-.11l.03.07zm-.13-.18v-.15a.1.1 0 0 0-.08-.07q-.06 0-.07.07v.15zm.21 0v-.15q0-.06.08-.07.08 0 .08.07v.15zm-.05-.37.01-.14h-.13v.14zm.1 0v-.14h.13l-.02.14zm-.3 0v-.14h-.13l.01.14z"/><path fill="#0039f0" d="M6.8 12.2v-.12c0-.02-.02-.08-.1-.08s-.1.06-.1.08v.13zm-.22-.4v-.12q0-.06-.07-.07-.06 0-.06.07v.13h.13m.24 0v-.12q0-.06.06-.07.06 0 .06.07v.13h-.12"/><path fill="#ad1519" d="M6.96 12.43c0-.3.22-.55.49-.55s.49.25.49.55-.22.55-.49.55-.49-.25-.49-.55"/><path stroke="#000" stroke-width=".15" d="M6.96 12.43c0-.3.22-.55.49-.55s.49.25.49.55-.22.55-.49.55-.49-.25-.49-.55Z"/><path fill="#005bbf" d="M7.1 12.43c0-.22.16-.4.35-.4s.34.18.34.4-.15.4-.34.4-.34-.18-.34-.4"/><path stroke="#000" stroke-width=".15" d="M7.1 12.43c0-.22.16-.4.35-.4s.34.18.34.4-.15.4-.34.4-.34-.18-.34-.4Z"/><path fill="#c8b100" d="M7.29 12.15q-.02.02-.04.09 0 .04.02.07l-.05-.02q-.03 0-.04.04v.02l.02.03.03-.01q.03 0 .03.03h-.04v.03h.04l-.03.05.03-.01.03.03.02-.03.03.01-.02-.05h.03v-.03h-.03a.03.03 0 0 1 .03-.04l.03.02.01-.03.01-.02a.04.04 0 0 0-.04-.04q-.04 0-.05.03l.02-.08c0-.04-.04-.09-.04-.09"/><path stroke="#000" stroke-linejoin="round" stroke-width=".07" d="M7.29 12.15q-.02.02-.04.09 0 .04.02.07l-.05-.02q-.03 0-.04.04v.02l.02.03.03-.01q.03 0 .03.03h-.04v.03h.04l-.03.05.03-.01.03.03.02-.03.03.01-.02-.05h.03v-.03h-.03a.03.03 0 0 1 .03-.04l.03.02.01-.03.01-.02a.04.04 0 0 0-.04-.04q-.04 0-.05.03l.02-.08c0-.04-.04-.09-.04-.09Z"/><path fill="#c8b100" d="M7.23 12.43h.12v-.03h-.12z"/><path stroke="#000" stroke-width=".07" d="M7.23 12.43h.12v-.03h-.12z"/><path fill="#c8b100" d="M7.6 12.15q-.02.02-.03.09.01.06.02.07l-.05-.02q-.03 0-.04.04v.02l.02.03.03-.01.03.03h-.04v.03h.04l-.03.05.03-.01.03.03.02-.03.03.01-.02-.05h.03v-.03h-.03a.03.03 0 0 1 .03-.04l.03.02.01-.03.01-.02a.04.04 0 0 0-.04-.04q-.03 0-.05.03l.02-.08c0-.04-.04-.09-.04-.09"/><path stroke="#000" stroke-linejoin="round" stroke-width=".07" d="M7.6 12.15q-.02.02-.03.09.01.06.02.07l-.05-.02q-.03 0-.04.04v.02l.02.03.03-.01.03.03h-.04v.03h.04l-.03.05.03-.01.03.03.02-.03.03.01-.02-.05h.03v-.03h-.03a.03.03 0 0 1 .03-.04l.03.02.01-.03.01-.02a.04.04 0 0 0-.04-.04q-.03 0-.05.03l.02-.08c0-.04-.04-.09-.04-.09Z"/><path fill="#c8b100" d="M7.54 12.43h.13v-.03h-.13z"/><path stroke="#000" stroke-width=".07" d="M7.54 12.43h.13v-.03h-.13z"/><path fill="#c8b100" d="M7.45 12.43s-.04.04-.04.08l.02.08-.05-.03a.04.04 0 0 0-.04.04v.03l.02.03q0-.03.03-.02l.03.03h-.04v.04h.04l-.03.05.03-.02.03.03.02-.03.03.02-.02-.05h.03v-.03h-.03v-.01l.03-.03q.01 0 .03.02l.01-.04.01-.02a.04.04 0 0 0-.04-.04.04.04 0 0 0-.05.03l.02-.08c0-.04-.04-.08-.04-.08"/><path stroke="#000" stroke-linejoin="round" stroke-width=".07" d="M7.45 12.43s-.04.04-.04.08l.02.08-.05-.03a.04.04 0 0 0-.04.04v.03l.02.03q0-.03.03-.02l.03.03h-.04v.04h.04l-.03.05.03-.02.03.03.02-.03.03.02-.02-.05h.03v-.03h-.03v-.01l.03-.03q.01 0 .03.02l.01-.04.01-.02a.04.04 0 0 0-.04-.04.04.04 0 0 0-.05.03l.02-.08c0-.04-.04-.08-.04-.08Z"/><path fill="#c8b100" d="M7.39 12.7h.12v-.02H7.4z"/><path stroke="#000" stroke-width=".07" d="M7.39 12.7h.12v-.02H7.4z"/><path fill="#c8b100" d="M8.43 10.98h-.01L8.4 11h-.05v-.05h-.01v.01h-.03q-.03-.01-.03-.04V11l.08.05.07.08.04-.02h.04v-.01q-.02 0-.04-.02v-.04h-.01q-.02.03-.03 0h-.02v-.05"/><path stroke="#000" stroke-width=".07" d="M8.43 10.98h-.01L8.4 11h-.05v-.05h-.01v.01h-.03q-.03-.01-.03-.04V11l.08.05.07.08.04-.02h.04v-.01q-.02 0-.04-.02v-.04h-.01q-.02.03-.03 0h-.02v-.05Z"/><path d="M8.36 11"/><path stroke="#000" stroke-width=".03" d="M8.36 11Z"/><path d="m8.39 11.03-.01-.01zh.01v.02z"/><path stroke="#000" stroke-width=".03" d="m8.39 11.03-.01-.01h.02v.02z"/><path d="M8.33 11v-.02h.02V11z"/><path stroke="#000" stroke-width=".03" d="M8.33 11v-.02h.02V11z"/><path d="M8.3 10.97"/><path stroke="#000" stroke-width=".03" d="M8.3 10.97Z"/><path d="M8.41 11.05"/><path stroke="#000" stroke-width=".03" d="M8.41 11.05Z"/><path d="M8.43 11.07h.01v-.01h-.01"/><path stroke="#000" stroke-width=".03" d="M8.43 11.07h.01v-.01h-.01Z"/><path d="M8.46 11.1v-.02.01"/><path stroke="#000" stroke-width=".03" d="M8.46 11.1v-.02.01Z"/><path fill="#c8b100" d="M8.38 10.9h-.02v.04l.03-.01z"/><path stroke="#000" stroke-width=".07" d="M8.38 10.9h-.02v.04l.03-.01-.01-.02"/><path fill="#c8b100" d="M8.33 10.93v.01h.03l-.01-.02z"/><path stroke="#000" stroke-width=".07" d="M8.33 10.93v.01h.03l-.01-.02z"/><path fill="#c8b100" d="M8.39 10.96h-.01l-.02-.02h.03z"/><path stroke="#000" stroke-width=".07" d="M8.39 10.96h-.01l-.02-.02h.03v.02"/><path fill="#c8b100" d="M8.35 10.94z"/><path stroke="#000" stroke-width=".07" d="M8.35 10.94h.01Z"/><path fill="#c8b100" d="M8.29 10.9v-.01l-.02-.02h.02q.02.04 0 .04"/><path stroke="#000" stroke-width=".07" d="M8.29 10.9v-.01l-.02-.02h.02q.02.04 0 .04Z"/><path fill="#c8b100" d="m8.32 10.92-.01.01-.02-.02h.03"/><path stroke="#000" stroke-width=".07" d="m8.32 10.92-.01.01-.02-.02h.03Z"/><path fill="#c8b100" d="M8.29 10.9v.01"/><path stroke="#000" stroke-width=".07" d="M8.29 10.9v.01Z"/><path fill="#c8b100" d="M8.45 10.95h-.02v.03l.02-.01z"/><path stroke="#000" stroke-width=".07" d="M8.45 10.95h-.02v.03l.02-.01z"/><path fill="#c8b100" d="M8.4 10.96v.02h.02v-.02z"/><path stroke="#000" stroke-width=".07" d="M8.4 10.96v.02h.02v-.02z"/><path fill="#c8b100" d="M8.45 11h-.02v-.02h.02z"/><path stroke="#000" stroke-width=".07" d="M8.45 11h-.02v-.02h.02z"/><path fill="#c8b100" d="M8.42 10.98"/><path stroke="#000" stroke-width=".07" d="M8.42 10.98Z"/><path fill="#c8b100" d="m8.5 11 .01.03h-.03z"/><path stroke="#000" stroke-width=".07" d="m8.5 11 .01.03h-.03l.01-.03z"/><path fill="#c8b100" d="M8.5 11.06h-.02v-.03l.03.01z"/><path stroke="#000" stroke-width=".07" d="M8.5 11.06h-.02v-.03l.03.01v.02"/><path fill="#c8b100" d="m8.46 11-.01.03h.03v-.02z"/><path stroke="#000" stroke-width=".07" d="m8.46 11-.01.03h.03v-.02z"/><path fill="#c8b100" d="M8.48 11.04v-.01z"/><path stroke="#000" stroke-width=".07" d="M8.48 11.04v-.01.01Z"/><path fill="#c8b100" d="M8.53 11.1h.04l-.01-.02h-.03z"/><path stroke="#000" stroke-width=".07" d="M8.53 11.1h.04l-.01-.02h-.03z"/><path fill="#c8b100" d="M8.5 11.07v.01l.03.02v-.04z"/><path stroke="#000" stroke-width=".07" d="M8.5 11.07v.01l.03.02v-.04z"/><path fill="#c8b100" d="M8.53 11.1v-.01h-.01"/><path stroke="#000" stroke-width=".07" d="M9.72 10.4v.03h-.08v-.02h.03v-.04h-.02v-.02h.02v-.02h.02v.02h.02v.02h-.02v.04h.03m-1.19.68h-.01z"/><path stroke="#000" stroke-width=".03" d="M5.16 10.78v-.03m-.01.03v-.03m0 .03v-.03m-.02.03v-.03m0 .03v-.03m-.02.03v-.03m0 .03v-.03m.02.03v-.03m-.03.03v-.03m0 .03v-.03m0 .03v-.03m-.02.03v-.02m0 .02v-.02m-.01.01v-.01m0 .01v-.01m-.02 0"/><path stroke="#000" stroke-width=".05" d="M5.04 10.77"/><path stroke="#000" stroke-width=".03" d="M9.64 10.78v-.03m-.01.03v-.03m0 .03v-.03m-.02.03v-.03m0 .03v-.03m-.02.03v-.03m0 .03v-.03m.01.03v-.03m-.02.03v-.03m0 .03v-.03m-.01.03v-.03m-.01.03v-.02m0 .02v-.02m-.01.02v-.02m0 .01v-.01m-.02.01v-.01"/><path stroke="#000" stroke-width=".05" d="M9.52 10.77"/></symbol><symbol id="mc_ui_sprite_flags-flag_pt" viewBox="0 0 24 24"><path fill="red" d="M9.8 4H23v15H9.8z"/><path fill="#060" d="M1 4h8.8v15H1z"/><path fill="#ff0" fill-rule="evenodd" stroke="#000" stroke-linecap="round" stroke-linejoin="round" stroke-width=".14" d="M12.67 13.4c-1.1-.03-6.19-3-6.22-3.47l.28-.44c.5.69 5.7 3.58 6.2 3.47z" clip-rule="evenodd"/><path fill="#ff0" fill-rule="evenodd" stroke="#000" stroke-linecap="round" stroke-linejoin="round" stroke-width=".14" d="M6.67 9.43c-.1.25 1.32 1.08 3.04 2.06 1.71.97 3.19 1.57 3.3 1.49l.05-.1q-.03.06-.15.03a18 18 0 0 1-3.17-1.5c-1.5-.85-2.8-1.63-3-1.96l-.02-.1h0zm6.02 3.99q-.02.04-.12.02c-.4-.04-1.67-.61-3.16-1.45-1.73-.97-3.16-1.85-3-2.08l.04-.07h0c-.13.4 2.83 1.98 3 2.08 1.72 1 3.16 1.57 3.29 1.42z" clip-rule="evenodd"/><path fill="#ff0" fill-rule="evenodd" d="M9.8 10.22c1.11-.01 2.48-.15 3.27-.44l-.17-.26c-.46.24-1.84.4-3.1.43-1.5-.02-2.55-.15-3.08-.48l-.16.28c.97.38 1.97.46 3.25.47" clip-rule="evenodd"/><path stroke="#000" stroke-linecap="round" stroke-linejoin="round" stroke-width=".14" d="M9.8 10.22c1.11-.01 2.48-.15 3.27-.44l-.17-.26c-.46.24-1.84.4-3.1.43-1.5-.02-2.55-.15-3.08-.48l-.16.28c.97.38 1.97.46 3.25.47"/><path fill="#ff0" fill-rule="evenodd" d="M13.12 9.79a5 5 0 0 1-1.3.32q-1 .15-2.02.14-.96 0-1.93-.11c-.8-.12-1.2-.28-1.36-.34l.04-.07c.44.16.85.26 1.33.33a15 15 0 0 0 3.92-.02c.78-.12 1.2-.27 1.26-.34zm-.15-.27q-.13.12-1.24.32a14 14 0 0 1-3.77.01c-.75-.1-1.15-.26-1.3-.3l.05-.07c.12.05.5.2 1.26.3a14 14 0 0 0 3.74-.02c.74-.1 1.14-.27 1.2-.32zm-6.8 1.95c.68.34 2.2.51 3.63.52 1.3 0 3-.18 3.64-.5l-.02-.34c-.2.29-2.02.57-3.64.56-1.61-.02-3.12-.25-3.62-.55z" clip-rule="evenodd"/><path stroke="#000" stroke-linecap="round" stroke-linejoin="round" stroke-width=".14" d="M6.17 11.47c.68.34 2.2.51 3.63.52 1.3 0 3-.18 3.64-.5l-.02-.34c-.2.29-2.02.57-3.64.56-1.61-.02-3.12-.25-3.62-.55zm6.96-1.67a5 5 0 0 1-1.3.32q-1 .15-2.02.14-.96 0-1.93-.11c-.8-.12-1.2-.28-1.36-.34l.04-.07c.44.16.85.26 1.33.33a15 15 0 0 0 3.92-.02c.78-.12 1.2-.27 1.26-.34zm-.15-.27q-.13.12-1.24.32a14 14 0 0 1-3.77.01c-.75-.1-1.15-.26-1.3-.3l.05-.07c.12.05.5.2 1.26.3a14 14 0 0 0 3.74-.02c.74-.1 1.14-.27 1.2-.32z"/><path fill="#ff0" fill-rule="evenodd" d="M13.47 11.42v.08c-.1.1-.7.27-1.44.38a16 16 0 0 1-4.38 0 6 6 0 0 1-1.53-.38v-.1c.34.21 1.24.37 1.54.41q.8.13 2.12.14 1.38-.01 2.23-.14c.54-.08 1.31-.27 1.46-.4m0-.3v.09c-.1.1-.7.27-1.44.38a16 16 0 0 1-4.38 0 6 6 0 0 1-1.53-.38v-.1c.34.21 1.24.37 1.54.41q1.05.14 2.12.14 1.38-.02 2.23-.15c.54-.07 1.31-.26 1.46-.38M9.8 13.35c-1.56 0-2.9-.4-3.2-.46l.21.3q1.46.48 3 .46a8 8 0 0 0 2.97-.45l.22-.32c-.5.23-2.2.47-3.2.47" clip-rule="evenodd"/><path stroke="#000" stroke-linecap="round" stroke-linejoin="round" stroke-width=".14" d="M9.8 13.34c-1.57 0-2.92-.4-3.2-.46l.2.3q1.46.48 3 .46a8 8 0 0 0 2.97-.45l.22-.32c-.5.23-2.2.47-3.2.47m3.68-1.92v.08c-.1.1-.7.27-1.44.38a16 16 0 0 1-4.38 0 6 6 0 0 1-1.53-.38v-.1c.34.21 1.24.37 1.54.41q.8.13 2.12.14 1.38-.01 2.23-.14c.54-.08 1.31-.27 1.46-.4m0-.3v.09c-.1.1-.7.27-1.44.38a16 16 0 0 1-4.38 0 6 6 0 0 1-1.53-.38v-.1c.34.21 1.24.37 1.54.41q1.05.14 2.12.14 1.38-.02 2.23-.15c.54-.07 1.31-.26 1.46-.38"/><path fill="#ff0" fill-rule="evenodd" stroke="#000" stroke-linecap="round" stroke-linejoin="round" stroke-width=".14" d="m12.86 13.12-.1.13a10.83 10.83 0 0 1-2.97.43 9 9 0 0 1-3.06-.5l-.04-.06v-.02l.08.03a10.5 10.5 0 0 0 4.84.32c.8-.16 1.12-.27 1.22-.32zm.18-.29-.07.12c-.19.06-.69.2-1.42.3-.48.05-.78.12-1.74.13a13 13 0 0 1-3.24-.45l-.03-.08q1.6.42 3.27.45c.88-.02 1.26-.08 1.73-.14.86-.12 1.29-.25 1.41-.29q0 0 0 0z" clip-rule="evenodd"/><path fill="#ff0" fill-rule="evenodd" d="M13.06 11.2c0 .96-.53 1.83-.95 2.21-.62.57-1.46.9-2.33.9a3.6 3.6 0 0 1-2.29-.89 3.2 3.2 0 0 1-.94-2.17 3 3 0 0 1 1.14-2.3c.62-.47 1.4-.73 2.2-.73a3.6 3.6 0 0 1 2.45 1.15c.43.49.62 1.02.72 1.83M9.79 7.9c.96 0 1.88.35 2.56.98a3.22 3.22 0 0 1 .01 4.8 3.7 3.7 0 0 1-2.56 1 3.9 3.9 0 0 1-2.57-1 3.4 3.4 0 0 1-1.07-2.4c0-1.87 1.63-3.39 3.63-3.39" clip-rule="evenodd"/><path stroke="#000" stroke-linecap="round" stroke-linejoin="round" stroke-width=".14" d="M9.79 7.9c.96 0 1.88.35 2.56.98a3.22 3.22 0 0 1 .01 4.8 3.7 3.7 0 0 1-2.56 1 3.9 3.9 0 0 1-2.57-1 3.4 3.4 0 0 1-1.07-2.4c0-1.87 1.63-3.39 3.63-3.39m3.27 3.3c0 .96-.53 1.83-.95 2.21-.62.57-1.46.9-2.33.9a3.6 3.6 0 0 1-2.29-.89 3.2 3.2 0 0 1-.94-2.17 3 3 0 0 1 1.14-2.3c.62-.47 1.4-.73 2.2-.73a3.6 3.6 0 0 1 2.45 1.15c.43.49.62 1.02.72 1.83"/><path fill="#ff0" fill-rule="evenodd" stroke="#000" stroke-linecap="round" stroke-linejoin="round" stroke-width=".14" d="M9.8 7.88c2 0 3.63 1.52 3.63 3.4s-1.63 3.4-3.63 3.4-3.63-1.53-3.63-3.4c0-1.88 1.63-3.4 3.63-3.4zm-3.55 3.4c0 1.82 1.6 3.32 3.55 3.32s3.55-1.5 3.55-3.33-1.6-3.32-3.55-3.32-3.55 1.5-3.55 3.32" clip-rule="evenodd"/><path fill="#ff0" fill-rule="evenodd" stroke="#000" stroke-linecap="round" stroke-linejoin="round" stroke-width=".14" d="M9.8 8.16c.88 0 1.73.33 2.35.91s.97 1.38.97 2.2-.35 1.62-.97 2.2-1.47.92-2.35.92c-1.82 0-3.32-1.4-3.32-3.12 0-.82.35-1.61.97-2.2a3.5 3.5 0 0 1 2.35-.91m-3.24 3.11c0 1.68 1.46 3.04 3.24 3.04s3.25-1.37 3.25-3.04-1.47-3.04-3.25-3.04c-.86 0-1.68.33-2.29.9-.6.57-.95 1.34-.95 2.14" clip-rule="evenodd"/><path fill="#ff0" fill-rule="evenodd" stroke="#000" stroke-linecap="round" stroke-linejoin="round" stroke-width=".14" d="M9.95 7.86h-.32v6.84h.31z" clip-rule="evenodd"/><path fill="#ff0" fill-rule="evenodd" stroke="#000" stroke-linecap="round" stroke-linejoin="round" stroke-width=".14" d="M9.91 7.82H10v6.91h-.07zm-.3 0h.08v6.91H9.6z" clip-rule="evenodd"/><path fill="#ff0" fill-rule="evenodd" stroke="#000" stroke-linecap="round" stroke-linejoin="round" stroke-width=".14" d="M13.43 11.4v-.24l-.22-.2-1.25-.3-1.8-.18-2.16.1-1.54.35-.3.21v.26l.78-.33 1.87-.28h1.8l1.32.14.91.2z" clip-rule="evenodd"/><path fill="#ff0" fill-rule="evenodd" d="M9.8 10.75c.86 0 1.68.08 2.35.2s1.16.28 1.32.46v.1c-.2-.23-.84-.4-1.34-.5a14 14 0 0 0-4.72.01c-.51.1-1.2.3-1.29.48v-.1c.05-.12.56-.31 1.28-.45.65-.12 1.5-.2 2.4-.2m0-.3q1.18 0 2.35.2c.68.13 1.16.3 1.32.47v.09c-.2-.22-.84-.39-1.34-.48a14 14 0 0 0-4.71 0c-.5.1-1.22.3-1.3.48v-.1c.05-.12.57-.32 1.28-.45.66-.12 1.5-.2 2.4-.2m-.02-1.48c1.35 0 2.53.18 3.07.44l.2.32a8 8 0 0 0-3.27-.45c-1.24 0-2.56.13-3.23.46l.24-.37c.54-.26 1.83-.4 2.99-.4" clip-rule="evenodd"/><path stroke="#000" stroke-linecap="round" stroke-linejoin="round" stroke-width=".14" d="M9.78 8.97c1.35 0 2.53.18 3.07.44l.2.32a8 8 0 0 0-3.27-.45c-1.24 0-2.56.13-3.23.46l.24-.37c.54-.26 1.83-.4 2.99-.4m.02 1.78c.86 0 1.68.08 2.35.2s1.16.28 1.32.46v.1c-.2-.23-.84-.4-1.34-.5a14 14 0 0 0-4.72.01c-.51.1-1.2.3-1.29.48v-.1c.05-.12.56-.31 1.28-.45.65-.12 1.5-.2 2.4-.2zm0-.3q1.18 0 2.35.2c.68.13 1.16.3 1.32.47v.09c-.2-.22-.84-.39-1.34-.48a14 14 0 0 0-4.71 0c-.5.1-1.22.3-1.3.48v-.1c.05-.12.57-.32 1.28-.45.66-.12 1.5-.2 2.4-.2"/><path fill="#ff0" fill-rule="evenodd" d="M9.8 9.23q1.06 0 2.1.14c.56.1 1.08.24 1.16.32l.06.1c-.19-.11-.64-.24-1.23-.34-.58-.1-1.33-.14-2.1-.14q-1.27 0-2.12.14-.6.07-1.14.33l.06-.1c.2-.1.52-.22 1.06-.31.6-.1 1.29-.13 2.15-.14m0-.29c.73 0 1.46.04 2.03.13q.55.07 1.05.33l.09.12c-.15-.15-.69-.3-1.17-.37-.57-.1-1.27-.13-2-.13Q8.77 9 7.75 9.16q-.54.06-1.01.29l.07-.1q.3-.16.93-.27 1.02-.15 2.06-.14m1.8 3.75q-.9-.15-1.8-.13c-2.26.03-2.98.44-3.07.56l-.17-.26c.58-.39 1.8-.6 3.25-.59q1.13.03 1.95.17z" clip-rule="evenodd"/><path stroke="#000" stroke-linecap="round" stroke-linejoin="round" stroke-width=".14" d="M11.6 12.69q-.9-.15-1.8-.13c-2.26.03-2.98.44-3.07.56l-.17-.26c.58-.39 1.8-.6 3.25-.59q1.13.03 1.95.17zM9.8 9.23q1.06 0 2.1.14c.56.1 1.08.24 1.16.32l.06.1c-.19-.11-.64-.24-1.23-.34-.58-.1-1.33-.14-2.1-.14q-1.27 0-2.12.14-.6.07-1.14.33l.06-.1c.2-.1.52-.22 1.06-.31.6-.1 1.29-.13 2.15-.14m0-.29c.73 0 1.46.04 2.03.13q.55.07 1.05.33l.09.12c-.15-.15-.69-.3-1.17-.37-.57-.1-1.27-.13-2-.13Q8.77 9 7.75 9.16q-.54.06-1.01.29l.07-.1q.3-.16.93-.27 1.02-.15 2.06-.14z"/><path fill="#ff0" fill-rule="evenodd" stroke="#000" stroke-linecap="round" stroke-linejoin="round" stroke-width=".14" d="M9.79 12.53q.93-.01 1.83.13l-.04.07q-.82-.14-1.8-.13a9 9 0 0 0-2.4.27c-.23.06-.6.2-.65.31l-.04-.06c.01-.07.24-.21.67-.32a9 9 0 0 1 2.43-.27m.02-.3q1 0 1.97.16l-.04.07q-.96-.16-1.93-.15c-.83 0-1.71.05-2.52.27-.25.07-.7.23-.72.35l-.04-.07c0-.11.4-.26.75-.35.8-.22 1.7-.28 2.53-.28" clip-rule="evenodd"/><path fill="#ff0" fill-rule="evenodd" stroke="#000" stroke-linecap="round" stroke-linejoin="round" stroke-width=".14" d="m13.01 12.9-.27.4-.78-.65-2.01-1.27-2.28-1.17-1.18-.38.25-.44.09-.04.73.17 2.42 1.17 1.4.82 1.17.8.48.5z" clip-rule="evenodd"/><path fill="#ff0" fill-rule="evenodd" stroke="#000" stroke-linecap="round" stroke-linejoin="round" stroke-width=".14" d="M6.45 9.84c.2-.13 1.73.5 3.32 1.4s3.1 1.92 2.97 2.11l-.05.07-.02.02s.03-.04 0-.1c-.07-.21-1.14-1.02-2.93-2.03-1.74-.97-3.2-1.55-3.33-1.39zm6.61 3.06c.14-.25-1.27-1.24-3.02-2.21-1.8-.95-3.08-1.51-3.32-1.35l-.05.1.01-.02q.09-.04.15-.03c.4 0 1.56.5 3.19 1.38.71.38 3.01 1.77 3 2.15l-.01.06z" clip-rule="evenodd"/><path fill="#fff" stroke="#000" stroke-width=".17" d="M7.62 11.65a2 2 0 0 0 .64 1.43 2.2 2.2 0 0 0 1.54.6c.57 0 1.13-.2 1.54-.59a2 2 0 0 0 .63-1.44V8.95l-4.35-.01z"/><path fill="red" stroke="#000" stroke-width=".12" d="M7.7 11.66a1.8 1.8 0 0 0 .62 1.37 2.16 2.16 0 0 0 3.4-.62q.15-.37.16-.75V9.02H7.7v2.64Zm3.35-1.85v1.86a1 1 0 0 1-.38.82 1.3 1.3 0 0 1-1.75 0 1.1 1.1 0 0 1-.37-.83V9.8z"/><path fill="#ff0" d="M7.97 9.7c0-.18.15-.23.15-.23s.16.05.16.24h-.3"/><path fill="#ff0" stroke="#000" stroke-width=".12" d="m7.85 9.48-.03.21h.16c0-.17.14-.2.14-.2s.15.04.15.2h.16l-.03-.22h-.55Zm-.04.22h.63q.01 0 .02.02 0 .03-.02.03H7.8q-.01 0-.02-.03 0-.02.03-.02Z"/><path fill="#ff0" d="M8.04 9.7c0-.12.09-.15.09-.15s.08.03.08.14zm-.21-.32h.6l.02.03-.02.02h-.6q-.02 0-.02-.02t.02-.02m.01.06h.57q.01 0 .02.02l-.02.02h-.57q-.02 0-.02-.02t.02-.02m.19-.37h.04v.03h.03v-.03h.05v.03h.03v-.03h.05v.07q0 .02-.02.02h-.16q-.02 0-.02-.02zm.16.1.02.21h-.16v-.22z"/><path stroke="#000" stroke-width=".12" d="M8.2 9.17v.21h-.15v-.22h.14m-.15.53c0-.1.09-.14.09-.14s.08.03.08.14zm-.21-.3h.6q.01 0 .02.02l-.02.02h-.6q-.02 0-.02-.02t.02-.02Zm.01.05h.57q.01 0 .02.02l-.02.02h-.57q-.02 0-.02-.02t.02-.02Zm.19-.37h.04v.03h.03v-.03h.05v.03h.03v-.03h.05v.07q0 .02-.02.02h-.16q-.02 0-.02-.02z"/><path fill="#ff0" stroke="#000" stroke-width=".12" d="M8 9.27v.11h-.14v-.11zM7.83 9.18h.04v.03h.04v-.03h.04v.03h.03v-.03h.05v.07q0 .02-.02.02h-.17l-.01-.02z"/><path d="M8.1 9.23q.02-.03.04 0v.06h-.03zM7.91 9.3h.03v.05h-.03z"/><path fill="#039" d="M9.53 11.36a.3.3 0 0 0 .17.25q.05.03.1.02a.3.3 0 0 0 .28-.27v-.37h-.55z"/><path fill="#fff" d="M9.66 11.18q.05-.01.05-.05 0-.05-.05-.06t-.06.06q0 .04.06.05M9.96 11.18q.05-.01.06-.05 0-.05-.06-.06t-.05.06q0 .04.05.05M9.8 11.32q.06 0 .06-.06 0-.04-.05-.05-.05.01-.06.05 0 .05.06.05M9.66 11.46q.05 0 .05-.05t-.05-.05-.06.05.06.05M9.96 11.46q.05 0 .06-.05t-.06-.05q-.05 0-.05.05t.05.05"/></symbol><symbol id="mc_ui_sprite_flags-flag_ru" viewBox="0 0 24 24"><path fill="#f5f5f5" stroke="#c7ccd1" d="M.5 4.5h23v15H.5z"/><path fill="#0039a6" fill-rule="evenodd" d="M1 9.16h22v9.37H1z" clip-rule="evenodd"/><path fill="#d52b1e" fill-rule="evenodd" d="M1 14h22v5H1z" clip-rule="evenodd"/></symbol><symbol id="mc_ui_sprite_flags-flag_th" viewBox="0 0 24 24"><path fill="#fff" d="M23 4H1v15h22z"/><path fill="#f4f5f8" fill-rule="evenodd" d="M1 4h22v15H1z" clip-rule="evenodd"/><path fill="#2d2a4a" fill-rule="evenodd" d="M1 9.08h22v5H1z" clip-rule="evenodd"/><path fill="#a51931" fill-rule="evenodd" d="M1 4h22v2.58H1zm0 12.5h22V19H1z" clip-rule="evenodd"/></symbol><symbol id="mc_ui_sprite_flags-flag_vi" viewBox="0 0 24 24"><path fill="#fff" d="M2.25 4h20v15h-20z"/><path fill="#ec0015" fill-rule="evenodd" d="M1 4h22v15H1z" clip-rule="evenodd"/><path fill="#ff0" fill-rule="evenodd" d="m15 15.16-2.63-1.95-2.61 1.97.97-3.21-2.61-1.98 3.22-.03 1-3.2 1.02 3.19h3.23l-2.6 2 1 3.22" clip-rule="evenodd"/></symbol></svg>